<?xml version="1.0" encoding="utf-8"?>
<!-- Generator: Adobe Illustrator 25.4.1, SVG Export Plug-In . SVG Version: 6.00 Build 0)  -->
<svg version="1.1" id="Layer_1" xmlns="http://www.w3.org/2000/svg" xmlns:xlink="http://www.w3.org/1999/xlink" x="0px" y="0px"
	 viewBox="0 0 100 100" style="enable-background:new 0 0 100 100;" xml:space="preserve">
<style type="text/css">
	.st0{fill:#FFFFFF;}
</style>
<g id="Group_87" transform="translate(78.09 -197.117)">
	<path id="Path_152" class="st0" d="M-22.06,284.24h-14.32c-3.95,0-7.16,3.21-7.16,7.16h28.63
		C-14.9,287.45-18.1,284.25-22.06,284.24C-22.06,284.24-22.06,284.24-22.06,284.24z"/>
	<path id="Path_153" class="st0" d="M13.73,284.24H-4.17c-3.95,0-7.16,3.2-7.16,7.16c0,0,0,0,0,0h25.05V284.24z"/>
	<g id="Group_86" transform="translate(-78.09 197.117)">
		<path id="Path_154" class="st0" d="M48.87,60.29c-5.93,0-10.74,4.81-10.74,10.74c0,5.93,4.81,10.74,10.74,10.74
			c5.93,0,10.74-4.81,10.74-10.74C59.61,65.09,54.8,60.29,48.87,60.29z"/>
		<path id="Path_155" class="st0" d="M81.08,60.29c-5.93,0-10.73,4.81-10.73,10.74c0,5.93,4.81,10.74,10.73,10.74
			c5.93,0,10.74-4.81,10.74-10.74C91.82,65.09,87.01,60.29,81.08,60.29z"/>
		<path id="Path_156" class="st0" d="M16.66,8.39c-5.93,0-10.74,4.81-10.74,10.74c0,5.93,4.81,10.74,10.74,10.74
			c5.93,0,10.74-4.81,10.74-10.74C27.4,13.2,22.59,8.39,16.66,8.39z"/>
		<path id="Path_157" class="st0" d="M34.56,8.39v20.13c2.87-1.1,5.47-2.82,7.6-5.03l5.15,4.97c-5.19,5.45-12.38,8.55-19.91,8.56
			H5.93v57.26h7.16V72.81h7.15v21.47h7.16v-50.1c2.41,0,4.8-0.25,7.16-0.75v11.49h57.26V8.39H34.56z"/>
	</g>
</g>
</svg>
