<?xml version="1.0" encoding="utf-8"?>
<!-- Generator: Adobe Illustrator 26.0.3, SVG Export Plug-In . SVG Version: 6.00 Build 0)  -->
<svg version="1.1" id="Layer_1" xmlns="http://www.w3.org/2000/svg" xmlns:xlink="http://www.w3.org/1999/xlink" x="0px" y="0px"
	 viewBox="0 0 100 100" style="enable-background:new 0 0 100 100;" xml:space="preserve">
<style type="text/css">
	.st0{fill:#771C3E;}
	.st1{fill:#0E606E;}
	.st2{fill:#6FB8BE;}
</style>
<g id="Group_475" transform="translate(0 -0.001)">
	<path id="Path_991" class="st0" d="M79.1,45.2c0.7,1.9,2.7,2.9,4.6,2.2c0,0,0,0,0,0c1.9-0.7,2.9-2.7,2.2-4.6c0,0,0,0,0,0
		c-0.7-1.9-2.7-2.9-4.6-2.2c-1,0.4-1.8,1.2-2.2,2.2h-2.6v-7.2h2.6c0.7,1.9,2.7,2.9,4.6,2.2c1.9-0.7,2.9-2.7,2.2-4.6c0,0,0,0,0,0
		c-0.7-1.9-2.7-2.9-4.6-2.2c0,0,0,0,0,0c-1,0.4-1.8,1.2-2.2,2.2h-2.6v-6c0-0.7-0.5-1.2-1.2-1.2l0,0H68v-1.5l2.8-0.9
		c0.5-0.2,0.8-0.6,0.8-1.1v-1.4c1.9-0.7,2.9-2.7,2.2-4.6c-0.7-1.9-2.7-2.9-4.6-2.2c0,0,0,0,0,0c-1.9,0.7-2.9,2.7-2.2,4.6
		c0,0,0,0,0,0c0.4,1,1.2,1.8,2.2,2.2v0.6l-2.8,0.9c-0.5,0.2-0.8,0.6-0.8,1.1v2.4h-6v-5c1.9-0.7,2.9-2.7,2.2-4.6
		c-0.7-1.9-2.7-2.9-4.6-2.2c0,0,0,0,0,0c-1.9,0.7-2.9,2.7-2.2,4.6c0,0,0,0,0,0c0.4,1,1.2,1.8,2.2,2.2v5h-6v-2.4c0-0.5-0.3-1-0.8-1.1
		l-2.8-0.9v-0.6c1.9-0.7,2.9-2.7,2.2-4.6c0,0,0,0,0,0c-0.7-1.9-2.7-2.9-4.6-2.2c0,0,0,0,0,0c-1.9,0.7-2.9,2.7-2.2,4.6c0,0,0,0,0,0
		c0.4,1,1.2,1.8,2.2,2.2v1.4c0,0.5,0.3,1,0.8,1.1l2.8,0.9v1.5h-7.2c-0.7,0-1.2,0.5-1.2,1.2c0,0,0,0,0,0v12h-1.2v-18
		c0-0.7-0.5-1.2-1.2-1.2l0,0c-9.3,0-16.8,7.5-16.8,16.8v7.9l-6.9,6.9c-0.2,0.2-0.3,0.5-0.3,0.9V56c0,0.7,0.5,1.2,1.2,1.2l0,0h6v19.2
		c0,0.7,0.5,1.2,1.2,1.2l0,0h7.2c0.3,0,0.5-0.1,0.7-0.2l2.9-2.2v9.6c0,0.7,0.5,1.2,1.2,1.2l0,0h6c0.4,0,0.7-0.2,1-0.5l10.8-14.4
		c0.2-0.2,0.2-0.5,0.2-0.7V62H56v22.9c0,0.7,0.5,1.2,1.2,1.2l0,0h28.9v-2.4H58.4V62h2.4v18c0,0.7,0.5,1.2,1.2,1.2l0,0h18v-2.4H63.2
		V62h2.4v13.2c0,0.7,0.5,1.2,1.2,1.2l0,0h19.2v-2.4H68V62h2.4v8.4c0,0.7,0.5,1.2,1.2,1.2l0,0h8.4v-2.4h-7.2V62h2.4
		c0.7,0,1.2-0.5,1.2-1.2c0,0,0,0,0,0v-6h2.6c0.7,1.9,2.7,2.9,4.6,2.2c0,0,0,0,0,0c1.9-0.7,2.9-2.7,2.2-4.6c0,0,0,0,0,0
		c-0.7-1.9-2.7-2.9-4.6-2.2c0,0,0,0,0,0c-1,0.4-1.8,1.2-2.2,2.2h-2.6v-7.2H79.1z M82.5,42.8c0.7,0,1.2,0.5,1.2,1.2c0,0,0,0,0,0
		c0,0.7-0.5,1.2-1.2,1.2l0,0c-0.7,0-1.2-0.5-1.2-1.2c0,0,0,0,0,0C81.3,43.3,81.8,42.8,82.5,42.8L82.5,42.8z M82.5,33.2
		c0.7,0,1.2,0.5,1.2,1.2c0,0,0,0,0,0c0,0.7-0.5,1.2-1.2,1.2l0,0c-0.7,0-1.2-0.5-1.2-1.2c0,0,0,0,0,0C81.3,33.7,81.8,33.2,82.5,33.2
		C82.5,33.2,82.5,33.2,82.5,33.2L82.5,33.2z M70.4,16.3c0.7,0,1.2,0.5,1.2,1.2c0,0,0,0,0,0c0,0.7-0.5,1.2-1.2,1.2l0,0
		c-0.7,0-1.2-0.5-1.2-1.2c0,0,0,0,0,0C69.2,16.9,69.8,16.3,70.4,16.3C70.4,16.3,70.4,16.3,70.4,16.3L70.4,16.3z M46.4,18.7
		c-0.7,0-1.2-0.5-1.2-1.2c0,0,0,0,0,0c0-0.7,0.5-1.2,1.2-1.2l0,0c0.7,0,1.2,0.5,1.2,1.2c0,0,0,0,0,0C47.6,18.2,47,18.7,46.4,18.7
		L46.4,18.7z M58.4,16.3c0.7,0,1.2,0.5,1.2,1.2c0,0,0,0,0,0c0,0.7-0.5,1.2-1.2,1.2l0,0c-0.7,0-1.2-0.5-1.2-1.2c0,0,0,0,0,0
		C57.2,16.9,57.7,16.3,58.4,16.3C58.4,16.3,58.4,16.3,58.4,16.3L58.4,16.3z M54.8,39.2h-7.2v-6h21.7v21.7H56V40.4
		C56,39.7,55.5,39.2,54.8,39.2C54.8,39.2,54.8,39.2,54.8,39.2L54.8,39.2z M74,59.6H56v-2.4h14.4c0.7,0,1.2-0.5,1.2-1.2c0,0,0,0,0,0
		V32c0-0.7-0.5-1.2-1.2-1.2l0,0H46.4c-0.7,0-1.2,0.5-1.2,1.2c0,0,0,0,0,0v7.2h-2.4V28.4h31.3L74,59.6z M82.5,52.4
		c0.7,0,1.2,0.5,1.2,1.2c0,0,0,0,0,0c0,0.7-0.5,1.2-1.2,1.2l0,0c-0.7,0-1.2-0.5-1.2-1.2c0,0,0,0,0,0C81.3,53,81.8,52.4,82.5,52.4
		C82.5,52.4,82.5,52.4,82.5,52.4L82.5,52.4z"/>
	<path id="Path_992" class="st1" d="M50,70.1L39.8,83.7h-4.2V73.5l6.7-5c0.3-0.2,0.5-0.6,0.5-1V62H50L50,70.1z"/>
	<path id="Path_993" class="st2" d="M53.6,59.6h-12c-0.7,0-1.2,0.5-1.2,1.2c0,0,0,0,0,0v6.1l-11.2,8.4h-5.6V56
		c0-0.7-0.5-1.2-1.2-1.2l0,0h-6v-1.9l6.9-6.9c0.2-0.2,0.3-0.5,0.3-0.9v-8.4c0-7.5,5.8-13.7,13.2-14.4v18c0,0.7,0.5,1.2,1.2,1.2l0,0
		h15.6L53.6,59.6z"/>
</g>
</svg>
