<?xml version="1.0" encoding="utf-8"?>
<!-- Generator: Adobe Illustrator 26.0.3, SVG Export Plug-In . SVG Version: 6.00 Build 0)  -->
<svg version="1.1" id="Layer_1" xmlns="http://www.w3.org/2000/svg" xmlns:xlink="http://www.w3.org/1999/xlink" x="0px" y="0px"
	 viewBox="0 0 100 100" style="enable-background:new 0 0 100 100;" xml:space="preserve">
<style type="text/css">
	.st0{fill:#771C3E;}
	.st1{fill:#0E5259;}
</style>
<g>
	<path id="Path_984" class="st0" d="M60.1,62.7c-3.5,0-7,0.1-10.5,0c-1.3,0-1.3,0.6-1.3,1.5c0,0.9-0.1,1.7,1.3,1.7
		c3.8-0.1,7.7,0,11.5-0.1c1.1,0,1.6,0.2,1.5,1.4c-0.1,2,0,4,0,6c0.2,2.5-1.4,4.7-3.8,5.4c-5.1,1.8-10.6,2-15.9,0.6
		c-3.4-0.8-5.8-4-5.6-7.5c0-4.2,0-8.3,0-12.5c-0.2-3.9,2.8-7.2,6.7-7.5c3.8-0.4,7.6-0.1,11.5-0.2c6.5,0,10.4-4,10.4-10.5
		c0-1.9,0-3.9,0-5.8c0-0.8,0.1-1.2,1.1-1.2c1.7,0.1,3.3,0,5,0c2.6,0,5,1.7,6,4.1c2.1,4.6,2.7,9.7,1.9,14.6c-0.1,0.8-0.3,1.6-0.5,2.4
		c-1.2,4.9-4.1,7.3-9.2,7.4c-0.1,0-0.2,0-0.3,0L60.1,62.7z M57.2,73.8c1.3,0,2.4-1.2,2.3-2.5c-0.1-1.3-1.1-2.2-2.4-2.2
		c-1.3,0-2.4,1.1-2.4,2.4C54.8,72.8,55.9,73.8,57.2,73.8L57.2,73.8z"/>
	<path id="Path_985" class="st1" d="M39.6,37.4c3.4,0,6.9,0,10.3,0c1.2,0,1.7-0.2,1.7-1.6c0-1.5-0.5-1.7-1.8-1.7
		c-3.7,0.1-7.4,0-11.1,0.1c-1.2,0-1.5-0.4-1.4-1.5c0.1-2.3-0.1-4.7,0.2-7c0.2-2,1.6-3.7,3.5-4.3c5.3-2,11.2-2.2,16.6-0.6
		c3.1,0.9,5.2,3.8,5,7c0,4.2-0.2,8.3,0.1,12.5c0.4,5.3-4.2,8-8,8.1c-3.5,0-7,0.2-10.5,0c-5.1-0.4-10.2,4.1-10.2,10c0,2-0.1,4,0,6
		c0,1.1-0.2,1.6-1.4,1.5c-1.2-0.1-2.4,0-3.7,0c-3.8,0-6-1.5-7.4-5c-1.8-4.7-2.2-9.9-1.2-14.9c0.2-0.8,0.3-1.6,0.6-2.4
		c0.9-3.4,3.9-5.9,7.5-6.1c0.3,0,0.7-0.1,1-0.1C32.8,37.4,36.2,37.4,39.6,37.4L39.6,37.4z M42.9,31c1.3,0,2.4-1.1,2.4-2.5
		c0,0,0,0,0,0c-0.1-1.3-1.1-2.3-2.4-2.3c-1.3,0-2.4,1.1-2.3,2.4c0,0,0,0,0,0.1C40.5,30,41.6,31,42.9,31L42.9,31z"/>
</g>
</svg>
