<?xml version="1.0" encoding="utf-8"?>
<!-- Generator: Adobe Illustrator 25.4.1, SVG Export Plug-In . SVG Version: 6.00 Build 0)  -->
<svg version="1.1" id="Layer_1" xmlns="http://www.w3.org/2000/svg" xmlns:xlink="http://www.w3.org/1999/xlink" x="0px" y="0px"
	 viewBox="0 0 100 100" style="enable-background:new 0 0 100 100;" xml:space="preserve">
<style type="text/css">
	.st0{fill:#FFFFFF;}
</style>
<g id="Group_524" transform="translate(-226 -5605.053)">
	<rect id="Rectangle_100" x="259.49" y="5645.03" class="st0" width="5.01" height="25.06"/>
	<rect id="Rectangle_101" x="259.49" y="5633.76" class="st0" width="5.01" height="5.01"/>
	<path id="Path_148" class="st0" d="M272.02,5645.03v25.06h5.01v-12.53c-0.01-3.8,3.06-6.88,6.85-6.89c0.01,0,0.03,0,0.04,0
		c3.8-0.01,6.88,3.06,6.89,6.85c0,0.01,0,0.03,0,0.04v12.53h5.01v-12.53c0-6.57-5.33-11.9-11.9-11.9c-2.47,0-4.88,0.76-6.89,2.19
		v-2.82L272.02,5645.03z"/>
	<path id="Path_149" class="st0" d="M316.23,5640.21c-2.69-0.02-5.4,0-8.09,0c-0.02,0-0.04,0-0.06,0c-0.1-0.86-0.22-1.73-0.4-2.59
		c-1.92-8.59-7.21-16.05-14.68-20.69c-7.66-4.72-16.94-6.05-25.62-3.67c-8.48,2.39-15.65,8.1-19.87,15.83
		c-1.85,3.46-3.06,7.22-3.58,11.11c-2.67-0.02-5.34,0-8,0c-3.36-0.07-6.15,2.59-6.22,5.96c0,0.01,0,0.02,0,0.02
		c-0.01,0.54,0,1.09,0,1.62v21c-0.07,2.86,1.87,5.38,4.65,6.03c1.34,0.18,2.69,0.24,4.04,0.16h5.68c0.05,0,0.09,0.01,0.14,0.01
		c0.19,0,0.36-0.05,0.54-0.07c0.04-0.01,0.08-0.01,0.12-0.02c3.04-0.38,5.32-2.96,5.31-6.03v-20.84c0-0.61,0.01-1.23,0-1.84
		c0-0.09-0.03-0.18-0.03-0.27v-0.21c-0.02-1.56,0.06-3.13,0.23-4.68c0.34-2.19,0.92-4.34,1.74-6.4c0.53-1.22,1.14-2.4,1.82-3.53
		c0.39-0.64,0.8-1.26,1.24-1.87c0.07-0.1,0.14-0.2,0.21-0.29c-0.07,0.08-0.12,0.14-0.04,0.04l0.08-0.1l0.04-0.06
		c0.05-0.08,0.11-0.16,0.18-0.23c0.02-0.01-0.03,0.05-0.09,0.13c0.18-0.22,0.35-0.44,0.53-0.65c0.93-1.1,1.94-2.14,3.02-3.09
		c0.27-0.24,0.55-0.47,0.82-0.7c0.08-0.07,0.16-0.13,0.24-0.19l0.07-0.05c0.6-0.45,1.21-0.88,1.84-1.27
		c1.25-0.79,2.56-1.48,3.91-2.07c2.12-0.86,4.34-1.46,6.61-1.8c2.31-0.27,4.64-0.27,6.95,0.01c2.17,0.34,4.3,0.92,6.35,1.73
		c1.22,0.53,2.4,1.14,3.53,1.82c0.64,0.39,1.26,0.8,1.87,1.24c0.1,0.07,0.2,0.14,0.3,0.21c-0.08-0.07-0.14-0.12-0.04-0.04l0.1,0.08
		l0.05,0.04c0.05,0.04,0.2,0.12,0.23,0.17c0.01,0.02-0.05-0.03-0.13-0.09c0.21,0.17,0.43,0.35,0.64,0.53
		c1.1,0.93,2.14,1.94,3.09,3.02c0.24,0.27,0.47,0.55,0.7,0.82c0.07,0.08,0.13,0.16,0.2,0.24l0.04,0.07c0.45,0.6,0.88,1.21,1.27,1.84
		c0.79,1.25,1.48,2.56,2.07,3.92c0.86,2.13,1.47,4.36,1.8,6.63c0.18,1.96,0.26,3.92,0.22,5.89v30.17c0,1.54,0.01,3.09,0,4.63
		c0,0.18-0.02,0.36-0.03,0.53c-0.06,0.3-0.14,0.6-0.24,0.89c-0.13,0.29-0.28,0.57-0.45,0.85c-0.02,0.03-0.05,0.07-0.07,0.11
		c-0.11,0.12-0.21,0.24-0.32,0.35c-0.11,0.11-0.25,0.24-0.38,0.35l-0.01,0.01c-0.29,0.19-0.6,0.36-0.91,0.5
		c-0.31,0.1-0.62,0.19-0.93,0.25c-1.58,0.13-3.22,0.02-4.8,0.02h-6.99c-0.89-2.23-2.63-4.03-4.84-4.98
		c-1.52-0.56-3.14-0.81-4.76-0.72c-1.15,0-2.3-0.01-3.45,0c-2.45-0.01-4.8,0.98-6.52,2.74c-1.99,2.1-2.86,5.01-2.36,7.86
		c0.47,2.58,2.05,4.83,4.32,6.14c2.8,1.61,6.22,1.21,9.33,1.21c2.94-0.04,5.67-1.49,7.37-3.89c0.4-0.56,0.72-1.17,0.97-1.81h10.59
		c1.27,0.05,2.54-0.11,3.77-0.47c2.58-0.83,4.75-2.61,6.05-4.98c0.82-1.56,1.25-3.29,1.26-5.05v-6.74c0.7,0.01,1.4-0.02,2.08-0.02
		h5.81c0.24,0,0.47-0.03,0.7-0.09c3.02-0.4,5.28-2.97,5.27-6.02v-20.84c0-0.61,0.01-1.23,0-1.84
		C322.26,5642.89,319.55,5640.21,316.23,5640.21z"/>
</g>
</svg>
