<?xml version="1.0" encoding="utf-8"?>
<!-- Generator: Adobe Illustrator 25.4.1, SVG Export Plug-In . SVG Version: 6.00 Build 0)  -->
<svg version="1.1" id="Layer_1" xmlns="http://www.w3.org/2000/svg" xmlns:xlink="http://www.w3.org/1999/xlink" x="0px" y="0px"
	 viewBox="0 0 100 100" style="enable-background:new 0 0 100 100;" xml:space="preserve">
<style type="text/css">
	.st0{fill:#FFFFFF;stroke:#FFFFFF;}
</style>
<g id="Group_243" transform="translate(-24.754 -23.378)">
	<path id="Path_426" class="st0" d="M75.87,56.73h3.22l1.1,8.06c0.08,0.6,0.63,1.02,1.23,0.94c0.32-0.04,0.6-0.22,0.78-0.49
		l5.6-8.51h19.79c1.91,0,3.45-1.55,3.45-3.45V36.24c0-1.91-1.55-3.45-3.45-3.45H75.87c-1.91,0-3.45,1.55-3.45,3.45v17.03
		C72.42,55.18,73.96,56.73,75.87,56.73z M74.62,36.24c0-0.69,0.56-1.26,1.26-1.26h31.73c0.69,0,1.26,0.56,1.26,1.26v17.03
		c0,0.69-0.56,1.26-1.26,1.26H87.21c-0.04,0-0.07,0.02-0.1,0.02c-0.21,0.02-0.42,0.1-0.58,0.24c-0.06,0.05-0.11,0.11-0.16,0.17
		c-0.02,0.03-0.05,0.04-0.07,0.07l-4.32,6.56l-0.84-6.11c-0.01-0.04-0.03-0.09-0.05-0.13c-0.02-0.08-0.04-0.15-0.08-0.22
		c-0.03-0.05-0.06-0.1-0.1-0.14c-0.05-0.07-0.11-0.14-0.18-0.19c-0.03-0.03-0.07-0.05-0.1-0.07c-0.08-0.06-0.17-0.1-0.27-0.13
		c-0.04-0.01-0.09-0.02-0.13-0.03c-0.06-0.02-0.12-0.03-0.19-0.04h-4.18c-0.69,0-1.26-0.56-1.26-1.26L74.62,36.24L74.62,36.24z"/>
	<path id="Path_427" class="st0" d="M102.72,83.59c0.25,0,0.5-0.09,0.7-0.25l6.16-5.05c5.17-4.11,6.21-8.26,6.18-11.01
		c-0.02-2.86-1.68-5.45-4.28-6.64c-3.5-1.56-6.59,0.38-8.37,2.36c-0.62-0.73-1.33-1.38-2.11-1.93c-1.78-1.3-4.1-1.59-6.15-0.76
		c-2.64,1.09-4.41,3.61-4.54,6.46c-0.14,2.75,0.73,6.94,5.73,11.25l5.96,5.3C102.19,83.49,102.45,83.59,102.72,83.59z"/>
	<path id="Path_428" class="st0" d="M97.47,76.35c-4.32-3.73-5.09-7.21-4.97-9.47c0.08-2,1.32-3.77,3.16-4.54
		c0.5-0.2,1.03-0.31,1.56-0.31c2.88,0,4.8,3.18,4.9,3.34c0.31,0.52,0.98,0.7,1.51,0.39c0.15-0.09,0.27-0.2,0.36-0.34
		c0.12-0.18,2.95-4.42,6.59-2.78c1.81,0.84,2.98,2.66,2.98,4.66c0.03,2.27-0.88,5.71-5.36,9.28l-5.44,4.47l-5.26-4.69
		C97.48,76.36,97.47,76.36,97.47,76.35z"/>
	<path id="Path_429" class="st0" d="M45,71.79c-0.01,0-0.03,0-0.04,0c-0.61,0-1.1,0.5-1.09,1.1c0,0.59,0.47,1.07,1.06,1.09
		l3.31,0.11c0.01,0,0.03,0,0.04,0c0.61,0,1.1-0.5,1.09-1.1c0-0.59-0.47-1.07-1.06-1.09L45,71.79z"/>
	<path id="Path_430" class="st0" d="M36.58,71.51c-0.01,0-0.03,0-0.04,0c-0.61,0-1.1,0.5-1.09,1.1c0,0.59,0.47,1.07,1.06,1.09
		l3.31,0.11c0.01,0,0.03,0,0.04,0c0.61,0,1.1-0.5,1.09-1.1c0-0.59-0.47-1.07-1.06-1.09L36.58,71.51z"/>
	<path id="Path_431" class="st0" d="M42.37,74.26c-0.01,0-0.02,0-0.02,0c-0.6,0-1.08,0.48-1.1,1.07l-0.08,3.32
		c-0.01,0.6,0.46,1.11,1.07,1.12c0,0,0,0,0,0c0.01,0,0.02,0,0.02,0c0.6,0,1.08-0.48,1.1-1.07l0.08-3.32
		C43.46,74.78,42.98,74.28,42.37,74.26C42.37,74.26,42.37,74.26,42.37,74.26z"/>
	<path id="Path_432" class="st0" d="M43.63,66.95c0.01-0.6-0.46-1.11-1.07-1.12c0,0,0,0,0,0c-0.01,0-0.02,0-0.02,0
		c-0.6,0-1.08,0.48-1.1,1.07l-0.08,3.31c-0.01,0.6,0.46,1.11,1.07,1.12c0,0,0,0,0,0c0.01,0,0.02,0,0.02,0c0.6,0,1.08-0.48,1.1-1.07
		L43.63,66.95z"/>
	<path id="Path_433" class="st0" d="M112.68,103.21l-3.31-0.11c-0.56-0.06-1.06,0.34-1.13,0.9c-0.01,0.05-0.01,0.11-0.01,0.16
		c-0.02,0.6,0.45,1.11,1.06,1.13c0,0,0,0,0,0l3.31,0.11c0.01,0,0.02,0,0.04,0c0.61,0,1.09-0.5,1.09-1.11
		C113.73,103.71,113.26,103.23,112.68,103.21L112.68,103.21z"/>
	<path id="Path_434" class="st0" d="M104.26,102.93l-3.31-0.11c-0.61-0.16-1.11,0.46-1.13,1.06c-0.02,0.6,0.45,1.11,1.06,1.13
		c0,0,0,0,0,0l3.31,0.11c0.01,0,0.02,0,0.04,0c0.61,0,1.09-0.5,1.09-1.11C105.31,103.43,104.85,102.95,104.26,102.93L104.26,102.93z
		"/>
	<path id="Path_435" class="st0" d="M106.75,105.57c-0.01,0-0.02,0-0.03,0c-0.6,0-1.08,0.48-1.1,1.07l-0.08,3.32
		c-0.02,0.6,0.46,1.1,1.06,1.12c0,0,0,0,0.01,0c0.01,0,0.02,0,0.03,0c0.6,0,1.08-0.48,1.1-1.07l0.08-3.32
		C107.84,106.09,107.36,105.59,106.75,105.57C106.76,105.57,106.75,105.57,106.75,105.57z"/>
	<path id="Path_436" class="st0" d="M106.94,97.14c-0.01,0-0.02,0-0.03,0c-0.6,0-1.08,0.48-1.1,1.07l-0.08,3.32
		c-0.02,0.6,0.46,1.11,1.06,1.12c0,0,0.01,0,0.01,0c0.01,0,0.02,0,0.03,0c0.6,0,1.08-0.48,1.1-1.07l0.08-3.32
		C108.03,97.66,107.55,97.15,106.94,97.14C106.95,97.14,106.95,97.14,106.94,97.14z"/>
	<path id="Path_437" class="st0" d="M91.93,87.48c2.48-1.87,2.97-5.39,1.11-7.86c-1.07-1.41-2.74-2.24-4.51-2.24H72.71l1.09-9.42
		c0.17-1.42-0.02-2.85-0.54-4.18c-2.53-6.37-6.72-7.21-8.92-7.16c-2.02,0.05-3.61,1.73-3.56,3.76c0,0.11,0.01,0.22,0.02,0.33
		l0.78,6.71c0.15,1.25-0.08,2.51-0.67,3.62l-6.82,11.87c-0.42,0.8-1.04,1.48-1.79,1.97l-1.01,0.57h-0.44v-0.36
		c0-0.61-0.49-1.1-1.1-1.1H36.08c-0.61,0-1.1,0.49-1.1,1.1v26.52c0,0.61,0.49,1.1,1.1,1.1h13.67c0.61,0,1.1-0.49,1.1-1.1v-1.05
		l0.55-0.01l1.74,1.02c2.19,1.29,4.68,1.97,7.21,1.97h21.77c0.05,0,0.11,0,0.16,0c3.14-0.03,5.66-2.6,5.63-5.74
		c-0.01-0.62-0.11-1.23-0.32-1.82c2.31-0.52,4.05-2.42,4.36-4.77c0.19-1.47-0.2-2.95-1.09-4.13c2.83-1.28,4.1-4.61,2.82-7.45
		C93.28,88.8,92.69,88.05,91.93,87.48L91.93,87.48z M48.65,110.52H37.18V86.19h11.46L48.65,110.52z M90.95,94.41
		c-0.64,0.64-1.51,1-2.42,1c-0.01,0-0.02,0-0.03,0H74.46c-0.61,0-1.1,0.49-1.1,1.1c0,0.61,0.49,1.1,1.1,1.1l0,0h13.69
		c1.61,0.99,2.11,3.1,1.12,4.7c-0.22,0.36-0.51,0.67-0.84,0.93c-0.72,0.56-1.63,0.8-2.53,0.68c-0.02,0-0.03,0.01-0.05,0.01
		c-0.03,0-0.06-0.02-0.09-0.02l-12.25-0.03l0,0c-0.61,0-1.1,0.49-1.1,1.1c0,0.61,0.49,1.1,1.1,1.1l11.62,0.03
		c0.44,0.67,0.63,1.46,0.54,2.26c-0.22,1.73-1.69,3.02-3.43,3.01c-0.03,0-0.07,0-0.1,0h-21.8c-2.15,0-4.25-0.58-6.1-1.67l-1.88-1.1
		c-0.2-0.15-0.45-0.23-0.7-0.23h-0.01l-0.81,0.01V87.65h0.72c0.19,0,0.37-0.05,0.54-0.14l1.32-0.74c1.09-0.69,1.98-1.66,2.59-2.79
		l6.82-11.87c0.81-1.51,1.13-3.23,0.93-4.94l-0.78-6.71c-0.1-0.8,0.47-1.53,1.28-1.63c0.05-0.01,0.09-0.01,0.14-0.01
		c2.87-0.06,5.29,1.92,6.82,5.77c0.39,0.99,0.53,2.06,0.4,3.11l-1.24,10.76c0,0.61,0.5,1.11,1.11,1.11h17.04
		c1.58-0.02,2.96,1.05,3.34,2.59c0.23,0.94,0.06,1.94-0.47,2.75c-0.51,0.77-1.31,1.3-2.22,1.48H75.33c-0.61,0-1.1,0.49-1.1,1.1
		s0.49,1.1,1.1,1.1l0,0h13.85c1.87,0.36,3.08,2.17,2.72,4.04C91.77,93.3,91.44,93.92,90.95,94.41L90.95,94.41z"/>
</g>
</svg>
