<?xml version="1.0" encoding="utf-8"?>
<!-- Generator: Adobe Illustrator 25.4.1, SVG Export Plug-In . SVG Version: 6.00 Build 0)  -->
<svg version="1.1" id="Layer_1" xmlns="http://www.w3.org/2000/svg" xmlns:xlink="http://www.w3.org/1999/xlink" x="0px" y="0px"
	 viewBox="0 0 100 100" style="enable-background:new 0 0 100 100;" xml:space="preserve">
<style type="text/css">
	.st0{fill:#FFFFFF;}
</style>
<g id="Group_416" transform="translate(-1306.514 -513.411)">
	<path id="Path_913" class="st0" d="M1371.3,533.63h-29.41c-3.15,0.01-5.69,2.56-5.69,5.71v1.42c-6.62,0.24-15.32,3.01-15.32,9.62
		v28.36c0,4.98,6.65,8.92,15.32,9.23v1.43c0,3.14,2.55,5.69,5.69,5.69h29.41c3.15,0,5.7-2.55,5.71-5.69v-4.44
		c2.68-0.72,4.67-4.03,5.93-8.42c3.69,0.91,9.05,1.48,10.94-1.8c1.62-2.81-0.31-6.66-3.91-10.38c3.59-3.72,5.53-7.57,3.91-10.38
		c-1.89-3.28-7.25-2.71-10.94-1.8c-1.26-4.39-3.25-7.7-5.93-8.42v-4.43C1377.01,536.18,1374.45,533.63,1371.3,533.63z
		 M1391.95,555.09c0.88,1.53-0.44,4.47-3.57,7.73c-1.3-1.18-2.68-2.28-4.11-3.3c-0.16-1.75-0.43-3.48-0.8-5.2
		C1385.96,553.72,1390.74,553,1391.95,555.09z M1384.47,562.42c0.84,0.65,1.62,1.3,2.33,1.94c-0.71,0.64-1.49,1.29-2.33,1.94
		C1384.52,565.01,1384.52,563.78,1384.47,562.42z M1384.27,569.2c1.43-1.02,2.81-2.12,4.11-3.3c3.13,3.27,4.46,6.2,3.57,7.73
		c-1.21,2.1-5.98,1.38-8.48,0.76C1383.84,572.68,1384.1,570.94,1384.27,569.2L1384.27,569.2z M1337.31,543.68
		c7.94,0,13.47,3.32,13.47,6.29v0.01c-0.01,2.98-5.54,6.29-13.47,6.29s-13.47-3.32-13.47-6.3S1329.37,543.68,1337.31,543.68
		L1337.31,543.68z M1337.31,565.86c-7.88,0-13.38-3.27-13.47-6.22v-4.3c2.95,2.37,7.83,3.9,13.47,3.9s10.53-1.53,13.47-3.9v4.25
		C1350.77,562.55,1345.24,565.86,1337.31,565.86L1337.31,565.86z M1350.78,564.92v4.24c-0.01,2.97-5.54,6.29-13.47,6.29
		c-7.88,0-13.38-3.27-13.47-6.23v-4.3c2.95,2.37,7.83,3.9,13.47,3.9S1347.83,567.29,1350.78,564.92L1350.78,564.92z M1337.29,585.04
		c-7.93,0-13.46-3.32-13.46-6.3v-4.22c2.95,2.37,7.83,3.9,13.47,3.9s10.53-1.53,13.47-3.9v4.23
		C1350.78,581.71,1345.24,585.04,1337.29,585.04L1337.29,585.04z M1374.79,589.4c-0.01,1.92-1.57,3.48-3.49,3.47h-29.41
		c-1.92,0-3.47-1.56-3.47-3.47v-1.43c8.67-0.32,15.32-4.25,15.32-9.23v-28.76c0-4.98-6.65-8.91-15.32-9.22v-1.42
		c0-1.92,1.55-3.48,3.47-3.49h29.41c1.93,0,3.49,1.56,3.49,3.49v4.43c-2.68,0.72-4.67,4.03-5.93,8.42c-1.67-0.44-3.38-0.68-5.1-0.71
		c-3.63,0-5.18,1.36-5.84,2.51c-1.25,2.16-0.39,5.26,2.43,8.73c0.45,0.55,0.95,1.1,1.48,1.65c-0.53,0.55-1.03,1.1-1.48,1.65
		c-2.82,3.47-3.68,6.57-2.43,8.73c1.89,3.28,7.24,2.71,10.94,1.8c1.26,4.39,3.25,7.71,5.93,8.42L1374.79,589.4z M1370.45,554.93
		c0.93,0.3,1.88,0.65,2.85,1.04c-1.13,0.6-1.94,1.04-3.37,1.93C1370.07,556.86,1370.24,555.86,1370.45,554.93L1370.45,554.93z
		 M1367.33,566.3c-0.82-0.64-1.59-1.28-2.32-1.94c0.72-0.65,1.49-1.3,2.32-1.93C1367.27,563.71,1367.27,564.94,1367.33,566.3
		L1367.33,566.3z M1367.53,569.2c0.16,1.74,0.43,3.48,0.8,5.19c-2.48,0.61-7.27,1.33-8.48-0.76c-1.22-2.11,1.88-5.95,3.57-7.72
		C1364.72,567.09,1366.09,568.19,1367.53,569.2L1367.53,569.2z M1367.53,559.52c-1.44,1.01-2.81,2.11-4.11,3.29
		c-0.48-0.5-0.94-1-1.34-1.5c-2.13-2.62-2.96-4.95-2.23-6.22c0.52-0.9,1.91-1.4,3.92-1.4c1.54,0.03,3.07,0.25,4.56,0.64
		C1367.96,556.05,1367.69,557.78,1367.53,559.52L1367.53,559.52z M1369.93,570.82c1.4,0.88,2.2,1.32,3.37,1.93
		c-0.97,0.4-1.92,0.75-2.85,1.04C1370.24,572.86,1370.07,571.87,1369.93,570.82L1369.93,570.82z M1375.9,582.9
		c-1.77,0-3.65-2.62-4.91-6.96c1.67-0.53,3.31-1.17,4.91-1.9c1.6,0.73,3.24,1.37,4.91,1.9
		C1379.55,580.29,1377.67,582.9,1375.9,582.9L1375.9,582.9z M1381.35,573.79c-0.93-0.3-1.88-0.65-2.85-1.04
		c1.14-0.6,1.96-1.05,3.36-1.93C1381.72,571.87,1381.55,572.86,1381.35,573.79L1381.35,573.79z M1382.16,567.98
		c-1.99,1.36-4.09,2.56-6.26,3.6c-2.18-1.04-4.27-2.24-6.26-3.6c-0.18-2.41-0.18-4.83,0-7.23c1.99-1.36,4.09-2.56,6.26-3.6
		c2.18,1.04,4.27,2.24,6.26,3.6C1382.34,563.15,1382.34,565.57,1382.16,567.98L1382.16,567.98z M1381.87,557.9
		c-1.36-0.86-2.16-1.3-3.36-1.93c0.97-0.4,1.92-0.75,2.85-1.04C1381.55,555.86,1381.72,556.86,1381.87,557.9L1381.87,557.9z
		 M1380.81,552.78c-1.67,0.53-3.31,1.17-4.91,1.9c-1.6-0.73-3.24-1.37-4.91-1.9c1.26-4.34,3.14-6.96,4.91-6.96h0.01
		C1377.67,545.83,1379.55,548.44,1380.81,552.78L1380.81,552.78z"/>
</g>
</svg>
