<?xml version="1.0" encoding="utf-8"?>
<!-- Generator: Adobe Illustrator 25.4.1, SVG Export Plug-In . SVG Version: 6.00 Build 0)  -->
<svg version="1.1" id="Layer_1" xmlns="http://www.w3.org/2000/svg" xmlns:xlink="http://www.w3.org/1999/xlink" x="0px" y="0px"
	 viewBox="0 0 100 100" style="enable-background:new 0 0 100 100;" xml:space="preserve">
<style type="text/css">
	.st0{fill:#FFFFFF;}
</style>
<g id="Group_83" transform="translate(212.414 -200.089)">
	<rect id="Rectangle_95" x="-157.56" y="221.88" class="st0" width="29.57" height="5.92"/>
	<rect id="Rectangle_96" x="-157.56" y="233.7" class="st0" width="29.57" height="5.92"/>
	<rect id="Rectangle_97" x="-157.56" y="245.53" class="st0" width="29.57" height="5.92"/>
	<rect id="Rectangle_98" x="-157.56" y="257.37" class="st0" width="29.57" height="5.92"/>
	<rect id="Rectangle_99" x="-157.56" y="269.19" class="st0" width="29.57" height="5.92"/>
	<path id="Path_142" class="st0" d="M-163.47,210.05h-23.65v78.78c8.33-1.35,14.46-8.55,14.45-16.99
		c-0.07-4.06-1.47-7.97-3.99-11.15l-0.98,6.33c-0.24,0.98-1.1,1.69-2.12,1.72c-0.96-0.15-1.68-0.96-1.72-1.92v-0.19l1.38-10.36
		c0.05-0.64,0.41-1.21,0.96-1.53c0.55-0.41,1.26-0.55,1.92-0.38l10.17,1.38c0.99,0.24,1.69,1.1,1.72,2.12
		c-0.24,0.98-1.1,1.69-2.12,1.72l-5.95-0.79c3.05,3.74,4.67,8.44,4.56,13.26c0.01,10.53-7.84,19.41-18.29,20.69v0.12h70.96v-82.8
		L-163.47,210.05z M-187.12,252.02v-3.9c14.89-4.62,14.6-16.8,14.6-16.8c0.07-8.54-6.15-15.84-14.6-17.13l0.01-4.07
		c10.58,1.33,18.49,10.36,18.42,21.02C-168.69,231.14-168.2,246.94-187.12,252.02z M-122.06,286.93h-41.4v-70.96h41.4V286.93z"/>
	<g id="Group_82" transform="translate(-212.414 200.089)">
		<path id="Path_143" class="st0" d="M25.29,51.94c-0.76,0.2-1.55,0.39-2.38,0.56C5.63,56.08,5.19,70.86,5.19,71.63
			c-0.01,9.53,7.69,17.28,17.22,17.34c0.97,0,1.93-0.07,2.89-0.23l-0.01,3.9c-0.89,0.11-1.79,0.17-2.69,0.16
			C10.94,92.74,1.53,83.27,1.54,71.62c0-0.19,0.26-18.62,20.62-22.78c1.11-0.23,2.15-0.5,3.13-0.81L25.29,51.94z"/>
		<path id="Path_144" class="st0" d="M25.29,14.1c-0.87-0.13-1.75-0.2-2.63-0.2c-9.5-0.07-17.27,7.57-17.34,17.07
			c0,0.05,0,0.1,0,0.15c-0.03,5.15,2.28,10.03,6.29,13.27c0.79,0.66,0.9,1.84,0.24,2.63c-0.02,0.02-0.04,0.04-0.05,0.06
			c-0.66,0.79-1.84,0.9-2.63,0.24c-0.02-0.02-0.04-0.04-0.06-0.05c-4.83-4.06-7.62-10.04-7.62-16.35
			C1.56,19.27,11.03,9.87,22.68,9.87c0.72,0,1.45,0.04,2.17,0.12c0.15,0.02,0.3,0.03,0.46,0.05L25.29,14.1z"/>
	</g>
</g>
</svg>
