<?xml version="1.0" encoding="utf-8"?>
<!-- Generator: Adobe Illustrator 25.4.1, SVG Export Plug-In . SVG Version: 6.00 Build 0)  -->
<svg version="1.1" id="Layer_1" xmlns="http://www.w3.org/2000/svg" xmlns:xlink="http://www.w3.org/1999/xlink" x="0px" y="0px"
	 viewBox="0 0 100 100" style="enable-background:new 0 0 100 100;" xml:space="preserve">
<style type="text/css">
	.st0{fill:#FFFFFF;}
</style>
<g id="Group_134" transform="translate(-415.994 -3.359)">
	<path id="Path_329" class="st0" d="M451.63,50.69h-6.48c-0.56,0-1.01,0.45-1.01,1.01v6.48c0,0.56,0.45,1.01,1.01,1.01h6.48
		c0.56,0,1.01-0.45,1.01-1.01v-6.48C452.64,51.15,452.19,50.69,451.63,50.69z M450.62,57.17h-4.45v-4.45h4.45V57.17z"/>
	<path id="Path_330" class="st0" d="M462.61,50.69h-6.47c-0.56,0-1.01,0.45-1.01,1.01v6.48c0,0.56,0.45,1.01,1.01,1.01h6.48
		c0.56,0,1.01-0.45,1.01-1.01v-6.48C463.63,51.15,463.17,50.69,462.61,50.69C462.61,50.69,462.61,50.69,462.61,50.69z M461.6,57.17
		h-4.45v-4.45h4.45V57.17z"/>
	<path id="Path_331" class="st0" d="M466.1,51.71v6.48c0,0.56,0.45,1.01,1.01,1.01h6.48c0.56,0,1.01-0.45,1.01-1.01v-6.48
		c0-0.56-0.45-1.01-1.01-1.01h-6.48C466.56,50.69,466.1,51.15,466.1,51.71L466.1,51.71z M468.13,52.72h4.45v4.45h-4.45V52.72z"/>
	<path id="Path_332" class="st0" d="M478.1,59.2h6.48c0.56,0,1.01-0.45,1.01-1.01v-6.48c0-0.56-0.45-1.01-1.01-1.01l0,0h-6.48
		c-0.56,0-1.01,0.45-1.01,1.01v6.48C477.09,58.74,477.54,59.2,478.1,59.2z M479.11,52.72h4.45v4.45h-4.45V52.72z"/>
	<path id="Path_333" class="st0" d="M451.63,61.63h-6.48c-0.56,0-1.01,0.45-1.01,1.01v6.48c0,0.56,0.45,1.01,1.01,1.01h6.48
		c0.56,0,1.01-0.45,1.01-1.01v-6.48C452.64,62.08,452.18,61.63,451.63,61.63z M450.61,68.11h-4.45v-4.45h4.45V68.11z"/>
	<path id="Path_334" class="st0" d="M462.61,61.63h-6.47c-0.56,0-1.01,0.45-1.01,1.01v6.48c0,0.56,0.45,1.01,1.01,1.02c0,0,0,0,0,0
		h6.48c0.56,0,1.01-0.45,1.01-1.01v-6.49C463.63,62.08,463.17,61.63,462.61,61.63z M461.6,68.11h-4.45v-4.45h4.45V68.11z"/>
	<path id="Path_335" class="st0" d="M473.6,61.63h-6.48c-0.56,0-1.01,0.45-1.01,1.01l0,0v6.48c0,0.56,0.45,1.01,1.01,1.01h6.48
		c0.56,0,1.01-0.45,1.01-1.01v-6.48C474.61,62.08,474.15,61.63,473.6,61.63z M472.58,68.11h-4.45v-4.45h4.45V68.11z"/>
	<path id="Path_336" class="st0" d="M478.1,70.13h6.48c0.56,0,1.01-0.45,1.01-1.01v-6.49c0-0.56-0.45-1.01-1.01-1.01l0,0h-6.48
		c-0.56,0-1.01,0.45-1.01,1.01v6.48C477.08,69.67,477.53,70.13,478.1,70.13C478.09,70.13,478.1,70.13,478.1,70.13z M479.11,63.66
		h4.45v4.45h-4.45V63.66z"/>
	<path id="Path_337" class="st0" d="M485.72,32.87h-4.66v-0.81c0-1.79-1.45-3.24-3.24-3.24c-1.79,0-3.24,1.45-3.24,3.24v0.81h-19.44
		v-0.81c0.03-1.79-1.39-3.26-3.18-3.3s-3.26,1.39-3.3,3.18c0,0.04,0,0.08,0,0.11v0.81h-4.66c-2.79,0-5.06,2.27-5.06,5.06v35.63
		c0,1.29,0.81,2.43,2.02,2.86v1.19c0,1.68,1.36,3.04,3.04,3.04h41.71c1.68,0,3.04-1.36,3.04-3.04v-1.19
		c1.21-0.43,2.02-1.58,2.02-2.86V37.94C490.78,35.14,488.52,32.88,485.72,32.87z M476.61,32.06c0-0.67,0.54-1.22,1.22-1.22
		c0.67,0,1.22,0.54,1.22,1.22v3.65c0,0.67-0.54,1.22-1.22,1.22c-0.67,0-1.22-0.54-1.22-1.22l0,0V32.06z M450.69,32.06
		c0-0.67,0.55-1.21,1.22-1.21c0.67,0,1.21,0.54,1.21,1.21v3.65c0,0.67-0.55,1.21-1.22,1.21c-0.67,0-1.21-0.54-1.21-1.21V32.06z
		 M486.73,77.62c0,0.56-0.45,1.01-1.01,1.01h-41.71c-0.56,0-1.01-0.45-1.01-1.01v-1.01h43.73L486.73,77.62z M488.76,73.57
		c0,0.56-0.45,1.01-1.01,1.01h-45.76c-0.56,0-1.01-0.45-1.01-1.01V46.24h23.76c0.1,0.02,0.21,0.02,0.31,0h23.71L488.76,73.57z
		 M488.76,44.21h-47.78v-6.28c0-1.68,1.36-3.04,3.04-3.04h4.66v0.81c-0.03,1.79,1.39,3.26,3.18,3.3s3.26-1.39,3.3-3.18
		c0-0.04,0-0.08,0-0.11V34.9h19.44v0.81c0,1.79,1.45,3.24,3.24,3.24c1.79,0,3.24-1.45,3.24-3.24V34.9h4.66
		c1.68,0,3.04,1.36,3.04,3.04L488.76,44.21L488.76,44.21z"/>
</g>
</svg>
