<?xml version="1.0" encoding="utf-8"?>
<!-- Generator: Adobe Illustrator 25.4.1, SVG Export Plug-In . SVG Version: 6.00 Build 0)  -->
<svg version="1.1" id="Layer_1" xmlns="http://www.w3.org/2000/svg" xmlns:xlink="http://www.w3.org/1999/xlink" x="0px" y="0px"
	 viewBox="0 0 100 100" style="enable-background:new 0 0 100 100;" xml:space="preserve">
<style type="text/css">
	.st0{fill:#FFFFFF;}
</style>
<path id="Path_358" class="st0" d="M34.36,27.47c-3.8-0.01-6.88,3.06-6.89,6.85s3.06,6.88,6.85,6.89s6.88-3.06,6.89-6.85
	c0-0.01,0-0.01,0-0.02C41.21,30.56,38.15,27.49,34.36,27.47z M34.36,29.99c2.4-0.01,4.35,1.94,4.36,4.34
	c0.01,2.4-1.94,4.35-4.34,4.36c-2.4,0.01-4.35-1.94-4.36-4.34c-0.01-2.39,1.92-4.35,4.31-4.36C34.34,29.99,34.35,29.99,34.36,29.99z
	 M63.38,33.44c-3.8-0.01-6.88,3.06-6.89,6.85c-0.01,3.8,3.06,6.88,6.85,6.89c3.8,0.01,6.88-3.06,6.89-6.85c0-0.01,0-0.01,0-0.02
	C70.22,36.53,67.16,33.46,63.38,33.44L63.38,33.44z M63.38,35.97c2.4-0.01,4.35,1.94,4.36,4.34c0.01,2.4-1.94,4.35-4.34,4.36
	c-2.4,0.01-4.35-1.94-4.36-4.34c0-0.01,0-0.01,0-0.02c-0.01-2.38,1.91-4.33,4.3-4.34C63.35,35.97,63.37,35.97,63.38,35.97z
	 M34.36,44.3c-7.2-0.05-13.08,5.74-13.14,12.94c0,0,0,0,0,0v10.74c0,0.69,0.56,1.26,1.26,1.26h39.54c0.69,0.01,1.26-0.55,1.27-1.24
	s-0.55-1.26-1.24-1.27H23.74v-9.48c0.1-5.87,4.93-10.54,10.8-10.44c5.73,0.1,10.35,4.72,10.44,10.44v6.24
	c0.01,0.69,0.58,1.25,1.27,1.24c0.67-0.01,1.22-0.54,1.24-1.21v-6.28C47.44,50.04,41.56,44.25,34.36,44.3
	C34.36,44.3,34.36,44.3,34.36,44.3L34.36,44.3z M63.38,50.27C56.18,50.21,50.3,56,50.25,63.2c0,0,0,0,0,0
	c-0.03,0.69,0.51,1.28,1.21,1.3c0.69,0.03,1.28-0.51,1.3-1.21c0-0.02,0-0.04,0-0.06v-0.03c0.1-5.87,4.93-10.54,10.8-10.44
	c5.73,0.1,10.35,4.72,10.44,10.44v9.5H51.5c-0.69-0.01-1.26,0.54-1.27,1.24c-0.01,0.69,0.54,1.26,1.24,1.27h23.79
	c0.69,0,1.26-0.56,1.26-1.26V63.21C76.46,56.01,70.58,50.21,63.38,50.27C63.38,50.27,63.38,50.27,63.38,50.27L63.38,50.27z"/>
</svg>
