<?xml version="1.0" encoding="utf-8"?>
<!-- Generator: Adobe Illustrator 25.4.1, SVG Export Plug-In . SVG Version: 6.00 Build 0)  -->
<svg version="1.1" id="Layer_1" xmlns="http://www.w3.org/2000/svg" xmlns:xlink="http://www.w3.org/1999/xlink" x="0px" y="0px"
	 viewBox="0 0 100 100" style="enable-background:new 0 0 100 100;" xml:space="preserve">
<style type="text/css">
	.st0{fill:#FFFFFF;}
</style>
<path id="Path_840" class="st0" d="M63.73,61.71H37.75c-0.49,0-0.89,0.4-0.89,0.89s0.4,0.89,0.89,0.89h25.98
	c0.49,0,0.89-0.4,0.89-0.89S64.22,61.71,63.73,61.71L63.73,61.71z M63.73,66.44H37.75c-0.49,0-0.89,0.4-0.89,0.89
	c0,0.49,0.4,0.89,0.89,0.89l0,0h25.98c0.49,0,0.89-0.4,0.89-0.89C64.62,66.84,64.22,66.44,63.73,66.44z M59.01,70.16H42.47
	c-0.39,0-0.71,0.32-0.71,0.71c0,0.39,0.32,0.71,0.71,0.71l0,0h16.53c0.39,0,0.71-0.32,0.71-0.71C59.72,70.48,59.4,70.16,59.01,70.16
	z M72.88,15.54H30.37c-1.96,0-3.54,1.59-3.54,3.54l0,0v63.06c0,1.96,1.59,3.54,3.54,3.54h42.51c1.96,0,3.54-1.58,3.55-3.54
	c0,0,0,0,0,0V19.08C76.43,17.13,74.84,15.54,72.88,15.54C72.88,15.54,72.88,15.54,72.88,15.54z M74.06,82.14
	c0,0.65-0.53,1.18-1.18,1.19c0,0,0,0,0,0H30.37c-0.65,0-1.18-0.53-1.18-1.18c0,0,0,0,0,0V19.08c0-0.65,0.53-1.18,1.18-1.18h42.51
	c0.65,0,1.18,0.53,1.18,1.18V82.14z M66.68,28.67c-0.51-0.32-1.18-0.17-1.5,0.33l-2.48,3.87h-2.12c-0.44,0-0.83,0.26-1,0.66
	l-3.4,7.92l-1.37-0.86c-0.31-0.19-0.69-0.22-1.02-0.07l-3.67,1.62l-2.32-1.93c-0.46-0.38-1.15-0.32-1.54,0.14
	c-0.01,0.01-0.01,0.02-0.02,0.02l-5.68,7.24V26.36c0-0.26-0.21-0.47-0.47-0.47c-0.26,0-0.47,0.21-0.47,0.47v22.45l-0.38,0.49
	c-0.38,0.46-0.32,1.15,0.14,1.53c0.46,0.38,1.15,0.32,1.53-0.14c0.01-0.02,0.03-0.03,0.04-0.05l0.16-0.2h24.97
	c0.26,0,0.47-0.21,0.47-0.47s-0.21-0.47-0.47-0.47H41.87l5.41-6.91l1.97,1.65c0.32,0.27,0.76,0.33,1.14,0.16l3.76-1.66l1.96,1.23
	c0.51,0.32,1.18,0.17,1.5-0.34c0.03-0.05,0.06-0.1,0.08-0.15l3.61-8.44h2c0.37,0,0.72-0.19,0.92-0.5l2.8-4.37
	C67.34,29.66,67.19,28.99,66.68,28.67C66.68,28.67,66.68,28.67,66.68,28.67z"/>
</svg>
