<?xml version="1.0" encoding="utf-8"?>
<!-- Generator: Adobe Illustrator 25.4.1, SVG Export Plug-In . SVG Version: 6.00 Build 0)  -->
<svg version="1.1" id="Layer_1" xmlns="http://www.w3.org/2000/svg" xmlns:xlink="http://www.w3.org/1999/xlink" x="0px" y="0px"
	 viewBox="0 0 100 100" style="enable-background:new 0 0 100 100;" xml:space="preserve">
<style type="text/css">
	.st0{fill:#FFFFFF;}
</style>
<g id="Group_135" transform="translate(-522.803 -9.851)">
	<path id="Path_338" class="st0" d="M558.71,66.39c-2.87,0-5.2-2.33-5.2-5.2c0-2.87,2.33-5.2,5.2-5.2c2.87,0,5.2,2.33,5.2,5.2
		C563.91,64.07,561.58,66.39,558.71,66.39L558.71,66.39z M558.71,57.73c-1.91,0-3.47,1.55-3.47,3.47c0,1.91,1.55,3.47,3.47,3.47
		c1.91,0,3.47-1.55,3.47-3.47c0,0,0,0,0,0C562.17,59.28,560.62,57.73,558.71,57.73z"/>
	<path id="Path_339" class="st0" d="M561.31,74.19h-5.2c-0.48,0-0.87-0.39-0.87-0.86c0,0,0,0,0,0v-3.25
		c-0.12-0.05-0.24-0.1-0.36-0.15l-2.3,2.3c-0.16,0.16-0.38,0.25-0.61,0.25l0,0c-0.23,0-0.45-0.09-0.61-0.25l-3.67-3.68
		c-0.34-0.34-0.34-0.89,0-1.22l2.3-2.3c-0.05-0.12-0.1-0.24-0.15-0.36h-3.25c-0.48,0-0.87-0.39-0.87-0.86c0,0,0,0,0,0v-5.2
		c0-0.48,0.39-0.87,0.87-0.87l0,0h3.25c0.05-0.12,0.1-0.24,0.15-0.36l-2.3-2.3c-0.34-0.34-0.34-0.89,0-1.22l3.67-3.67
		c0.34-0.32,0.88-0.32,1.22,0l2.3,2.3c0.12-0.05,0.24-0.1,0.36-0.15v-3.25c0-0.48,0.39-0.87,0.87-0.87l0,0h5.2
		c0.48,0,0.87,0.39,0.87,0.87c0,0,0,0,0,0v3.25c0.12,0.05,0.24,0.1,0.36,0.15l2.3-2.3c0.16-0.16,0.38-0.25,0.61-0.25l0,0
		c0.23,0,0.45,0.09,0.61,0.25l3.67,3.67c0.34,0.34,0.34,0.89,0,1.23l-2.3,2.3c0.05,0.12,0.1,0.24,0.15,0.36h3.25
		c0.48,0,0.87,0.39,0.87,0.87v0v5.2c0,0.48-0.39,0.87-0.86,0.87c0,0,0,0,0,0h-3.25c-0.05,0.12-0.1,0.24-0.15,0.36l2.3,2.3
		c0.34,0.34,0.34,0.89,0,1.22l-3.67,3.68c-0.34,0.32-0.88,0.32-1.22,0l-2.3-2.3c-0.12,0.05-0.24,0.1-0.36,0.15v3.25
		C562.18,73.8,561.79,74.19,561.31,74.19C561.31,74.19,561.31,74.19,561.31,74.19z M556.97,72.46h3.47v-3c0-0.38,0.24-0.71,0.6-0.82
		c0.43-0.13,0.85-0.31,1.25-0.52c0.34-0.19,0.76-0.13,1.03,0.15l2.13,2.13l2.45-2.45l-2.12-2.13c-0.27-0.27-0.33-0.69-0.15-1.03
		c0.21-0.4,0.39-0.82,0.52-1.25c0.12-0.36,0.45-0.6,0.83-0.6h3v-3.47h-3c-0.38,0-0.71-0.24-0.83-0.6c-0.13-0.43-0.31-0.85-0.52-1.25
		c-0.18-0.34-0.12-0.76,0.15-1.03l2.12-2.13L565.45,52l-2.13,2.13c-0.27,0.27-0.69,0.33-1.03,0.15c-0.4-0.21-0.82-0.39-1.25-0.52
		c-0.36-0.12-0.6-0.45-0.6-0.83v-3h-3.46v3c0,0.38-0.24,0.71-0.6,0.83c-0.43,0.13-0.85,0.31-1.25,0.52
		c-0.34,0.19-0.76,0.13-1.03-0.15L551.97,52l-2.44,2.45l2.12,2.13c0.27,0.27,0.33,0.69,0.15,1.03c-0.21,0.4-0.39,0.82-0.52,1.25
		c-0.12,0.36-0.45,0.6-0.83,0.6h-3v3.47h3c0.38,0,0.71,0.24,0.83,0.6c0.13,0.43,0.31,0.85,0.52,1.25c0.18,0.34,0.12,0.76-0.15,1.03
		l-2.12,2.13l2.44,2.45l2.13-2.13c0.27-0.27,0.69-0.33,1.03-0.15c0.4,0.21,0.82,0.39,1.25,0.52c0.36,0.12,0.6,0.45,0.6,0.83
		L556.97,72.46z"/>
	<path id="Path_340" class="st0" d="M572.58,46.46c-0.48,0-0.87,0.39-0.87,0.87c0,0,0,0,0,0v1.13c-7.03-7.18-18.56-7.3-25.74-0.27
		l0,0c-0.33,0.35-0.32,0.89,0.02,1.23c0.33,0.32,0.85,0.32,1.19,0.01c6.5-6.36,16.92-6.26,23.29,0.24c0.08,0.08,0.17,0.17,0.25,0.26
		h-1.61c-0.48-0.02-0.88,0.36-0.9,0.84c-0.02,0.48,0.36,0.88,0.84,0.9c0.02,0,0.04,0,0.06,0h3.47c0.48,0,0.87-0.39,0.87-0.86
		c0,0,0,0,0,0v-3.46C573.44,46.85,573.05,46.46,572.58,46.46z"/>
	<path id="Path_341" class="st0" d="M572.28,72.01c-0.36-0.32-0.91-0.28-1.22,0.08l0,0c-5.75,6.52-15.58,7.45-22.44,2.11h1.43
		c0.48,0.02,0.88-0.36,0.9-0.84s-0.36-0.88-0.84-0.9c-0.02,0-0.04,0-0.06,0h-3.47c-0.48,0-0.87,0.39-0.87,0.87v0v3.47
		c-0.02,0.48,0.36,0.88,0.84,0.9c0.48,0.02,0.88-0.36,0.9-0.84c0-0.02,0-0.04,0-0.06v-1.32c7.58,5.99,18.53,5,24.92-2.25
		C572.68,72.87,572.64,72.33,572.28,72.01C572.29,72.01,572.29,72.01,572.28,72.01L572.28,72.01z"/>
	<path id="Path_342" class="st0" d="M597.46,45.84l-10.4-10.4c-0.16-0.16-0.38-0.25-0.61-0.25h-25.13c-0.48,0-0.87,0.39-0.87,0.87
		c0,0,0,0,0,0v5.2c0.02,0.48,0.42,0.85,0.9,0.84c0.46-0.02,0.82-0.38,0.84-0.84v-4.33h23.4v9.53c0,0.48,0.39,0.87,0.86,0.87
		c0,0,0,0,0,0h9.53v38.13h-33.8v-4.33c0.02-0.48-0.36-0.88-0.84-0.9c-0.48-0.02-0.88,0.36-0.9,0.84c0,0.02,0,0.04,0,0.06v5.2
		c0,0.48,0.39,0.87,0.86,0.87c0,0,0,0,0,0h35.53c0.48,0,0.87-0.39,0.87-0.86c0,0,0,0,0,0V46.46
		C597.71,46.23,597.62,46.01,597.46,45.84z M587.31,38.14l7.44,7.44h-7.44V38.14z"/>
	<path id="Path_343" class="st0" d="M591.64,62.06h-15.6c-0.48,0.02-0.88-0.36-0.9-0.84s0.36-0.88,0.84-0.9c0.02,0,0.04,0,0.06,0
		h15.6c0.48,0.02,0.85,0.42,0.84,0.9C592.47,61.68,592.1,62.04,591.64,62.06z"/>
	<path id="Path_344" class="st0" d="M591.64,56.86h-15.6c-0.48,0.02-0.88-0.36-0.9-0.84s0.36-0.88,0.84-0.9c0.02,0,0.04,0,0.06,0
		h15.6c0.48,0.02,0.85,0.42,0.84,0.9C592.47,56.48,592.1,56.84,591.64,56.86z"/>
	<path id="Path_345" class="st0" d="M591.64,67.26h-15.6c-0.48,0.02-0.88-0.36-0.9-0.84s0.36-0.88,0.84-0.9c0.02,0,0.04,0,0.06,0
		h15.6c0.48,0.02,0.85,0.42,0.84,0.9C592.47,66.88,592.1,67.24,591.64,67.26z"/>
	<path id="Path_346" class="st0" d="M591.64,51.66h-15.6c-0.48,0.02-0.88-0.36-0.9-0.84c-0.02-0.48,0.36-0.88,0.84-0.9
		c0.02,0,0.04,0,0.06,0h15.6c0.48,0.02,0.85,0.42,0.84,0.9C592.47,51.28,592.1,51.64,591.64,51.66z"/>
	<path id="Path_347" class="st0" d="M591.64,72.46h-15.6c-0.48,0.02-0.88-0.36-0.9-0.84s0.36-0.88,0.84-0.9c0.02,0,0.04,0,0.06,0
		h15.6c0.48,0.02,0.85,0.42,0.84,0.9C592.47,72.08,592.1,72.44,591.64,72.46z"/>
	<path id="Path_348" class="st0" d="M591.64,77.66h-18.2c-0.48,0.02-0.88-0.36-0.9-0.84s0.36-0.88,0.84-0.9c0.02,0,0.04,0,0.06,0
		h18.2c0.48-0.02,0.88,0.36,0.9,0.84s-0.36,0.88-0.84,0.9C591.68,77.66,591.66,77.66,591.64,77.66z"/>
</g>
</svg>
