<?xml version="1.0" encoding="utf-8"?>
<!-- Generator: Adobe Illustrator 26.0.3, SVG Export Plug-In . SVG Version: 6.00 Build 0)  -->
<svg version="1.1" id="Layer_1" xmlns="http://www.w3.org/2000/svg" xmlns:xlink="http://www.w3.org/1999/xlink" x="0px" y="0px"
	 viewBox="0 0 174.1 100" style="enable-background:new 0 0 174.1 100;" xml:space="preserve">
<style type="text/css">
	.st0{fill:#B92F6A;}
	.st1{fill:none;stroke:#DDDDDD;stroke-width:2;stroke-miterlimit:10;}
	.st2{fill:none;stroke:#6FB8BE;stroke-width:2;stroke-miterlimit:10;}
	.st3{fill:#FFFFFF;}
	.st4{fill:#DDDDDD;}
</style>
<g id="Group_32" transform="translate(-70.364 -110.213)">
	<path id="Rectangle_18" class="st0" d="M81.5,133.2h151.6c2.8,0,5.1,2.3,5.1,5.1v44.7c0,2.8-2.3,5.1-5.1,5.1H81.5
		c-2.8,0-5.1-2.3-5.1-5.1v-44.7C76.4,135.5,78.7,133.2,81.5,133.2z"/>
	<path id="Path_21" class="st1" d="M119.4,181.6H80.6v-38.7"/>
	<line id="Line_5" class="st2" x1="83.6" y1="178.6" x2="129.2" y2="143.9"/>
	<g id="Group_19" transform="translate(77.793 119.806)">
		<g id="Group_18">
			<circle id="Ellipse_56" class="st3" cx="11.3" cy="52.7" r="1"/>
			<circle id="Ellipse_57" class="st3" cx="7.1" cy="55.7" r="1"/>
			<circle id="Ellipse_58" class="st3" cx="17.9" cy="47.6" r="1"/>
			<circle id="Ellipse_59" class="st3" cx="36.3" cy="36.7" r="1"/>
			<circle id="Ellipse_60" class="st3" cx="23.9" cy="44.3" r="1"/>
			<path id="Path_34" class="st3" d="M16.9,51.7c0.6,0,1,0.4,1,1s-0.4,1-1,1s-1-0.4-1-1S16.4,51.7,16.9,51.7z"/>
			<circle id="Ellipse_62" class="st3" cx="29.6" cy="39.3" r="1"/>
			<circle id="Ellipse_63" class="st3" cx="50.2" cy="24" r="1"/>
			<circle id="Ellipse_64" class="st3" cx="51.2" cy="26" r="1"/>
			<circle id="Ellipse_65" class="st3" cx="43.6" cy="28.6" r="1"/>
			<circle id="Ellipse_66" class="st3" cx="41.6" cy="32.7" r="1"/>
			<circle id="Ellipse_67" class="st3" cx="48.2" cy="27.6" r="1"/>
		</g>
	</g>
	<path id="Path_22" class="st1" d="M225.5,181.6h-38.7v-38.7"/>
	<line id="Line_6" class="st2" x1="188" y1="147.4" x2="236.5" y2="177.8"/>
	<path id="Path_23" class="st1" d="M173.1,181.6h-38.7v-38.7"/>
	<g id="Group_27" transform="translate(71.393 113.767)">
		<g id="Group_26" transform="translate(0)">
			<g id="Group_20">
				<path id="Path_24" class="st4" d="M9.3,23l-3.2,6h6.4L9.3,23z"/>
			</g>
			<g id="Group_21" transform="translate(41.924 41.562)">
				<path id="Path_25" class="st4" d="M12.1,26.2l-6-3.2v6.4L12.1,26.2z"/>
			</g>
			<g id="Group_22" transform="translate(106.093)">
				<path id="Path_26" class="st4" d="M9.3,23l-3.2,6h6.4L9.3,23z"/>
			</g>
			<g id="Group_23" transform="translate(148.017 41.562)">
				<path id="Path_27" class="st4" d="M12.1,26.2l-6-3.2v6.4L12.1,26.2z"/>
			</g>
			<g id="Group_24" transform="translate(53.7)">
				<path id="Path_28" class="st4" d="M9.3,23l-3.2,6h6.4L9.3,23z"/>
			</g>
			<g id="Group_25" transform="translate(95.624 41.562)">
				<path id="Path_29" class="st4" d="M12.1,26.2l-6-3.2v6.4L12.1,26.2z"/>
			</g>
		</g>
	</g>
	<g id="Group_29" transform="translate(184.152 123.519)">
		<g id="Group_28">
			<circle id="Ellipse_68" class="st3" cx="11.4" cy="27" r="1"/>
			<circle id="Ellipse_69" class="st3" cx="7.1" cy="24" r="1"/>
			<circle id="Ellipse_70" class="st3" cx="18.5" cy="31.3" r="1"/>
			<circle id="Ellipse_71" class="st3" cx="35.2" cy="44.6" r="1"/>
			<circle id="Ellipse_72" class="st3" cx="23.7" cy="35.7" r="1"/>
			<circle id="Ellipse_73" class="st3" cx="13.4" cy="32.2" r="1"/>
			<circle id="Ellipse_74" class="st3" cx="30.4" cy="39.3" r="1"/>
			<circle id="Ellipse_75" class="st3" cx="52" cy="53.2" r="1"/>
			<circle id="Ellipse_76" class="st3" cx="50.5" cy="54.8" r="1"/>
			<circle id="Ellipse_77" class="st3" cx="45.4" cy="48.6" r="1"/>
			<circle id="Ellipse_78" class="st3" cx="40.8" cy="48.2" r="1"/>
			<circle id="Ellipse_79" class="st3" cx="47.9" cy="52.6" r="1"/>
		</g>
	</g>
	<g id="Group_31" transform="translate(131.454 122.392)">
		<g id="Group_30">
			<circle id="Ellipse_80" class="st3" cx="15.8" cy="38.6" r="1"/>
			<circle id="Ellipse_81" class="st3" cx="11.4" cy="35.7" r="1"/>
			<circle id="Ellipse_82" class="st3" cx="22.9" cy="43" r="1"/>
			<circle id="Ellipse_83" class="st3" cx="35.8" cy="41.8" r="1"/>
			<circle id="Ellipse_84" class="st3" cx="28" cy="47.4" r="1"/>
			<circle id="Ellipse_85" class="st3" cx="15.8" cy="54.8" r="1"/>
			<circle id="Ellipse_86" class="st3" cx="47.7" cy="49.1" r="1"/>
			<circle id="Ellipse_87" class="st3" cx="48.7" cy="35.7" r="1"/>
			<circle id="Ellipse_88" class="st3" cx="18.7" cy="50" r="1"/>
			<circle id="Ellipse_89" class="st3" cx="7.1" cy="44" r="1"/>
			<circle id="Ellipse_90" class="st3" cx="34.8" cy="51" r="1"/>
			<circle id="Ellipse_91" class="st3" cx="12.4" cy="25.9" r="1"/>
			<circle id="Ellipse_92" class="st3" cx="44.6" cy="26" r="1"/>
			<circle id="Ellipse_93" class="st3" cx="23.9" cy="29.1" r="1"/>
			<circle id="Ellipse_94" class="st3" cx="7.1" cy="53.8" r="1"/>
			<circle id="Ellipse_95" class="st3" cx="44.2" cy="38.8" r="1"/>
			<circle id="Ellipse_96" class="st3" cx="31" cy="32.2" r="1"/>
			<circle id="Ellipse_97" class="st3" cx="33.8" cy="24" r="1"/>
			<circle id="Ellipse_98" class="st3" cx="41.6" cy="47.6" r="1"/>
			<circle id="Ellipse_99" class="st3" cx="37.7" cy="55.8" r="1"/>
			<circle id="Ellipse_100" class="st3" cx="28" cy="54.8" r="1"/>
		</g>
	</g>
</g>
</svg>
