<?xml version="1.0" encoding="utf-8"?>
<!-- Generator: Adobe Illustrator 26.0.3, SVG Export Plug-In . SVG Version: 6.00 Build 0)  -->
<svg version="1.1" id="Layer_1" xmlns="http://www.w3.org/2000/svg" xmlns:xlink="http://www.w3.org/1999/xlink" x="0px" y="0px"
	 viewBox="0 0 100 100" style="enable-background:new 0 0 100 100;" xml:space="preserve">
<style type="text/css">
	.st0{fill:#771C3E;}
	.st1{fill:#0E5259;}
</style>
<g id="Group_471" transform="translate(0 0)">
	<path id="Path_981" class="st0" d="M78.5,65.5l9.4,15.9c-0.1,0.1-0.3,0.1-0.4,0.1c-5,0-9.9,0-14.9,0c-0.3,0-0.5-0.1-0.6-0.4
		c-1.1-2-2.2-4-3.2-6.1c-0.7-1.4-1.4-2.8-2.1-4.1c-0.1-0.2-0.3-0.5-0.4-0.7c-0.8-1.3-1.4-2.7-2.3-4c-0.4-0.5-0.7-1-1.1-1.4
		c-0.5-0.8-1.4-1.2-2.3-1.3c-1.1,0-2.2,0-3.3,0c-0.4,0-0.4,0.1-0.4,0.4c0,0.9,0,1.8,0,2.7v6.2c0,2.7,0,5.5,0,8.2
		c0,0.3-0.1,0.4-0.4,0.4c-4.4,0-8.7,0-13.1,0c-0.4,0-0.4-0.1-0.4-0.5c0-2.7,0-5.5,0-8.2v-8.1c0,0,0-0.1,0-0.1c0-9.5,0-19.1,0-28.6
		c0-0.2,0-0.4,0-0.5c0.2,0,0.4,0,0.6,0h27.1c0.2,0,0.4,0,0.6,0c1,0.1,2,0.2,2.9,0.5c2.2,0.5,4.3,1.5,6,3c1.6,1.4,2.7,3.3,3.1,5.4
		c0.3,1.5,0.4,2.9,0.3,4.4c-0.1,1.7-0.5,3.4-1.2,4.9c-1.5,2.9-4,5.1-7.1,6.2c-1.2,0.4-2.5,0.7-3.8,0.9c1.7,0.5,3.3,1.1,4.8,2
		C77.2,63.6,77.9,64.5,78.5,65.5z M65.6,53.3c0.9-0.1,1.8-0.5,2.6-1.1c1.2-1.3,1.4-3.1,0.7-4.7c-0.6-1.3-2-2.1-3.5-2
		c-2.7,0-5.4,0-8.1,0c-0.4,0-0.4,0.1-0.4,0.5c0,2.4,0,4.7,0,7.1c0,0.1,0,0.2,0.1,0.3c0.1,0,0.2,0,0.3,0c2.7,0,5.4,0,8,0
		C65.4,53.3,65.5,53.3,65.6,53.3z"/>
	<g id="Group_470" transform="translate(0 0)">
		<path id="Path_982" class="st1" d="M78.4,65.5c-0.5-1-1.3-1.9-2.2-2.6c0.1,0,0.1-0.1,0.2-0.1c2.1-1,4-2.4,5.6-4.1
			c1.5-1.6,2.7-3.6,3.3-5.7c0.6-2,0.9-4.2,0.7-6.3c-0.1-2-0.6-4-1.5-5.9c-1.3-2.6-3.2-4.8-5.6-6.3c-2.6-1.7-5.4-2.9-8.3-3.6
			c-3.1-0.8-6.3-1.3-9.5-1.5c-3.1-0.2-6.2-0.2-9.3,0c-3.2,0.3-6.5,0.9-9.6,1.8c-3.4,1-6.7,2.6-9.6,4.6c-2.5,1.7-4.5,3.9-6,6.6
			c-1.7,3.1-1.9,6.9-0.4,10.1c1.2,2.7,3,5,5.4,6.7c2.1,1.6,4.4,3,6.8,4c1.5,0.6,3,1.2,4.5,1.6v8.1c-1.5-0.2-3-0.4-4.6-0.7
			c-2.7-0.5-5.4-1.3-8-2.3c-2.1-0.8-4.1-1.7-6-2.7c-2.6-1.4-5-3.1-7.2-5.1c-1.4-1.2-2.6-2.6-3.7-4.1c-2.8-3.6-4.3-8.1-4.2-12.7
			c0.2-4,1.5-7.8,3.8-11c1.6-2.3,3.5-4.3,5.7-6c2.7-2.2,5.7-3.9,8.9-5.3c3.3-1.4,6.8-2.5,10.3-3.2c2.2-0.5,4.4-0.8,6.6-1
			c3.4-0.3,6.7-0.3,10.1-0.1c3.4,0.2,6.8,0.8,10.1,1.6c3,0.7,5.8,1.8,8.6,3.1c2.2,1,4.4,2.2,6.4,3.6c2.9,2,5.4,4.4,7.4,7.2
			c1.5,2.1,2.6,4.3,3.2,6.8c0.5,1.9,0.7,3.9,0.6,5.9c-0.3,4.3-1.9,8.3-4.6,11.6c-2.1,2.6-4.6,4.8-7.3,6.7L78.4,65.5z"/>
		<path id="Path_983" class="st1" d="M56.8,72.8v-6.2c2.4-0.1,4.7-0.2,7.1-0.4c0.9,1.3,1.5,2.7,2.3,4c0.1,0.3,0.2,0.5,0.4,0.7
			c-0.9,0.1-1.7,0.5-2.5,0.7c-1.7,0.4-3.4,0.7-5.1,1C58.2,72.7,57.5,72.7,56.8,72.8z"/>
	</g>
</g>
</svg>
