<?xml version="1.0" encoding="utf-8"?>
<!-- Generator: Adobe Illustrator 25.4.1, SVG Export Plug-In . SVG Version: 6.00 Build 0)  -->
<svg version="1.1" id="Layer_1" xmlns="http://www.w3.org/2000/svg" xmlns:xlink="http://www.w3.org/1999/xlink" x="0px" y="0px"
	 viewBox="0 0 100 100" style="enable-background:new 0 0 100 100;" xml:space="preserve">
<style type="text/css">
	.st0{fill:#FFFFFF;}
</style>
<g id="Group_358" transform="translate(-16 -16)">
	<path id="Path_831" class="st0" d="M49.84,64.3h4.33v-2.16h-4.33c-7.17,0-12.98-5.81-12.98-12.98s5.81-12.98,12.98-12.98
		s12.98,5.81,12.98,12.98c0,0,0,0,0,0v3.24h2.16v-3.24c0-8.36-6.78-15.15-15.15-15.15c-8.36,0-15.15,6.78-15.15,15.15
		C34.7,57.52,41.48,64.3,49.84,64.3C49.84,64.3,49.84,64.3,49.84,64.3z"/>
	<path id="Path_832" class="st0" d="M71.48,49.15c0-7.17,5.81-12.98,12.98-12.98c7.17,0,12.98,5.81,12.98,12.98
		s-5.81,12.98-12.98,12.98l0,0h-4.33v2.16h4.33c8.36,0,15.15-6.78,15.15-15.15s-6.78-15.15-15.15-15.15
		c-8.36,0-15.15,6.78-15.15,15.15c0,0,0,0,0,0v3.24h2.16V49.15z"/>
	<path id="Path_833" class="st0" d="M62.82,83.77c0,7.17-5.81,12.98-12.98,12.98s-12.98-5.81-12.98-12.98
		c0-7.17,5.81-12.98,12.98-12.98c0,0,0,0,0,0h4.33v-2.16h-4.33c-8.36,0-15.15,6.78-15.15,15.15s6.78,15.15,15.15,15.15
		s15.15-6.78,15.15-15.15l0,0v-3.25h-2.17V83.77z"/>
	<path id="Path_834" class="st0" d="M84.46,68.62h-4.33v2.16h4.33c7.17,0,12.98,5.81,12.98,12.98s-5.81,12.98-12.98,12.98
		c-7.17,0-12.98-5.81-12.98-12.98l0,0v-3.25h-2.16v3.24c0,8.36,6.78,15.15,15.14,15.15c8.36,0,15.15-6.78,15.15-15.14
		C99.61,75.41,92.83,68.62,84.46,68.62C84.46,68.62,84.46,68.62,84.46,68.62z"/>
	<path id="Path_835" class="st0" d="M62.82,57.81v3.24h-3.24c-1.79,0-3.24,1.46-3.25,3.25v10.82c0.01,1.79,1.46,3.24,3.24,3.24
		h15.15c1.79-0.01,3.24-1.46,3.24-3.24V64.3c-0.01-1.79-1.46-3.24-3.24-3.24h-3.24v-3.24c0-1.79-1.46-3.24-3.25-3.25h-2.16
		C64.28,54.57,62.83,56.02,62.82,57.81z M74.72,76.2H59.58c-0.6,0-1.08-0.49-1.08-1.08v-6.49h17.31v6.49
		C75.8,75.71,75.32,76.19,74.72,76.2L74.72,76.2z M75.81,64.3v2.16H58.5V64.3c0-0.6,0.49-1.08,1.08-1.08h15.15
		C75.32,63.22,75.8,63.7,75.81,64.3L75.81,64.3z M66.07,56.72h2.16c0.6,0,1.08,0.49,1.08,1.08v3.24h-4.33v-3.24
		C64.99,57.21,65.47,56.73,66.07,56.72L66.07,56.72z"/>
	<path id="Path_836" class="st0" d="M42.27,79.44v9.74h-1.08v2.16H58.5v-2.16h-1.08v-3.24h-2.16v3.24h-2.16v-5.41h-2.16v5.41h-2.16
		v-7.57H46.6v7.57h-2.16v-9.74H42.27z"/>
	<path id="Path_837" class="st0" d="M56.82,81.16c-4.13-1.04-7.8-3.4-10.47-6.72l-1.69,1.35c2.96,3.69,7.04,6.31,11.63,7.46
		l1.93,0.49l0.53-2.1L56.82,81.16z"/>
	<path id="Path_838" class="st0" d="M91.26,75.43l-1.89,1.89c-0.19-0.04-0.39-0.06-0.58-0.05h-8.66c-1.79,0.01-3.24,1.46-3.24,3.24
		V87c0,0.75,0.26,1.48,0.74,2.05l-1.5,1.5l1.53,1.53l1.89-1.89c0.19,0.04,0.39,0.06,0.58,0.05h8.65c1.79-0.01,3.24-1.46,3.24-3.24
		v-6.49c0-0.75-0.26-1.48-0.74-2.05l1.5-1.5L91.26,75.43z M79.05,87.02v-6.49c0-0.6,0.49-1.08,1.08-1.08h1.08v2.16h2.16v-2.16h3.88
		l-8.07,8.07C79.1,87.37,79.05,87.19,79.05,87.02L79.05,87.02z M89.87,80.52v6.49c0,0.6-0.49,1.08-1.08,1.08h-7.13l8.07-8.07
		C89.82,80.18,89.87,80.35,89.87,80.52L89.87,80.52z"/>
	<path id="Path_839" class="st0" d="M76.12,55.95l1.53,1.53l3.06-3.06c0.8,0.57,1.71,0.95,2.68,1.11v2.27h2.16v-2.26
		c0.96-0.16,1.88-0.54,2.68-1.11l1.97,1.97l1.53-1.53l-1.97-1.97c0.57-0.8,0.95-1.71,1.11-2.68h2.26v-2.16h-2.26
		c-0.16-0.96-0.54-1.88-1.11-2.68l3.06-3.06l-1.53-1.53l-3.06,3.06c-0.8-0.57-1.71-0.95-2.68-1.11V40.5h-2.16v2.26
		c-0.96,0.16-1.88,0.54-2.68,1.11l-1.97-1.97l-1.53,1.53l1.97,1.97c-0.57,0.8-0.95,1.71-1.11,2.68h-2.26v2.16h2.26
		c0.16,0.96,0.54,1.88,1.11,2.68L76.12,55.95z M88.79,49.15c-0.01,2.4-1.96,4.33-4.35,4.33c-0.77,0-1.52-0.21-2.18-0.59l5.92-5.92
		C88.58,47.62,88.79,48.38,88.79,49.15L88.79,49.15z M80.13,49.15c0.01-2.4,1.95-4.33,4.35-4.33c0.77,0,1.52,0.21,2.18,0.59
		l-5.92,5.92C80.34,50.68,80.13,49.93,80.13,49.15L80.13,49.15z"/>
	
		<rect id="Rectangle_281" x="37.92" y="47.54" transform="matrix(0.5369 -0.8437 0.8437 0.5369 -20.1884 60.4577)" class="st0" width="14.1" height="2.16"/>
	
		<rect id="Rectangle_282" x="44.22" y="49.69" transform="matrix(0.7894 -0.6139 0.6139 0.7894 -20.5592 41.624)" class="st0" width="12.33" height="2.16"/>
	<rect id="Rectangle_283" x="50.06" y="53.73" class="st0" width="10.85" height="1.81"/>
</g>
</svg>
