<?xml version="1.0" encoding="utf-8"?>
<!-- Generator: Adobe Illustrator 25.4.1, SVG Export Plug-In . SVG Version: 6.00 Build 0)  -->
<svg version="1.1" id="Layer_1" xmlns="http://www.w3.org/2000/svg" xmlns:xlink="http://www.w3.org/1999/xlink" x="0px" y="0px"
	 viewBox="0 0 100 100" style="enable-background:new 0 0 100 100;" xml:space="preserve">
<style type="text/css">
	.st0{fill:#FFFFFF;}
</style>
<g id="Group_89" transform="translate(79.97 -246.737)">
	<g id="Group_88" transform="translate(-77 246.737)">
		<path id="Path_158" class="st0" d="M44.59,1.39c-1.2,0.11-2.26,0.84-2.79,1.93c-0.73,1.28-1.27,2.66-1.61,4.09
			c-0.05,0.18-0.1,0.37-0.14,0.56c-0.69-1.28-1.56-2.46-2.59-3.5c-0.79-0.92-2-1.35-3.19-1.14c-1.14,0.41-1.97,1.4-2.19,2.59
			c-0.38,1.42-0.54,2.89-0.5,4.37c0,0.19,0.01,0.38,0.01,0.58c-0.15-0.16-0.31-0.32-0.46-0.47c-1.01-1.07-2.17-2-3.44-2.73
			c-1-0.68-2.28-0.79-3.38-0.28c-0.99,0.69-1.54,1.86-1.45,3.06c0,1.47,0.22,2.94,0.65,4.35c0.16,0.6,0.36,1.22,0.57,1.87
			c-0.36-0.23-0.72-0.45-1.07-0.65c-1.25-0.78-2.61-1.37-4.03-1.75c-1.14-0.4-2.41-0.17-3.33,0.6c-0.78,0.93-1.01,2.19-0.61,3.34
			c0.39,1.42,0.98,2.78,1.75,4.03c1.31,2.18,2.81,4.24,4.47,6.16c-1.55-0.66-3.14-1.22-4.76-1.68c-1.41-0.43-2.87-0.65-4.35-0.65
			c-1.21-0.09-2.37,0.46-3.07,1.44c-0.51,1.1-0.4,2.38,0.28,3.38c0.74,1.27,1.66,2.43,2.74,3.44c0.68,0.68,1.46,1.37,2.31,2.08
			c-0.65-0.04-1.28-0.06-1.88-0.07c-1.47-0.05-2.94,0.12-4.37,0.49c-1.19,0.22-2.17,1.06-2.59,2.19c-0.21,1.19,0.23,2.4,1.14,3.19
			c1.04,1.04,2.24,1.92,3.53,2.61c0.53,0.3,1.11,0.61,1.71,0.91c-0.54,0.11-1.07,0.24-1.56,0.36c-1.43,0.33-2.81,0.88-4.09,1.61
			c-1.09,0.52-1.82,1.58-1.93,2.79c0.11,1.2,0.84,2.26,1.93,2.79c1.28,0.73,2.66,1.28,4.09,1.61c4.17,0.99,8.45,1.46,12.74,1.4
			c4.29,0.06,8.57-0.41,12.74-1.4c1.43-0.33,2.81-0.87,4.09-1.61c1.09-0.52,1.83-1.58,1.94-2.79c0-0.42-0.11-0.84-0.31-1.21
			c0.1-0.18,0.17-0.36,0.22-0.56c0.18-0.77,0.03-1.58-0.41-2.23c0.06-0.08,0.11-0.15,0.16-0.24c0.51-1.1,0.4-2.38-0.28-3.38
			c-0.15-0.27-0.31-0.54-0.48-0.79c0.51-0.09,0.98-0.34,1.35-0.7c0.38-0.39,0.63-0.89,0.71-1.43c0.06-0.03,0.11-0.05,0.17-0.09
			c0.11-0.06,0.22-0.14,0.32-0.22c0.2,0,0.4-0.03,0.59-0.08c0.46-0.13,0.88-0.38,1.21-0.74h0.04c0.33,0.36,0.75,0.61,1.22,0.74
			c0.19,0.05,0.39,0.08,0.58,0.08c0.1,0.08,0.21,0.15,0.32,0.22c0.05,0.03,0.11,0.06,0.17,0.09c0.08,0.54,0.33,1.04,0.72,1.43
			c0.37,0.36,0.83,0.61,1.34,0.7c-0.17,0.26-0.33,0.52-0.48,0.79c-0.68,1-0.79,2.28-0.28,3.38c0.05,0.08,0.1,0.16,0.16,0.24
			c-0.44,0.65-0.59,1.47-0.41,2.24c0.05,0.19,0.13,0.38,0.22,0.55c-0.2,0.37-0.31,0.78-0.31,1.21c0.11,1.21,0.84,2.27,1.94,2.79
			c1.28,0.73,2.65,1.27,4.09,1.61c4.17,0.99,8.45,1.45,12.74,1.39c4.29,0.06,8.57-0.41,12.74-1.39c1.43-0.33,2.81-0.88,4.09-1.61
			c1.54-0.58,2.32-2.3,1.73-3.84c-0.3-0.8-0.93-1.43-1.73-1.73c-1.28-0.73-2.66-1.27-4.09-1.61c-0.5-0.13-1.02-0.25-1.56-0.36
			c0.6-0.3,1.18-0.6,1.71-0.91c1.3-0.7,2.49-1.58,3.53-2.61c0.92-0.79,1.35-2,1.14-3.19c-0.42-1.14-1.4-1.97-2.59-2.19
			c-1.42-0.37-2.89-0.54-4.37-0.49c-0.59,0-1.22,0.02-1.88,0.07c0.86-0.71,1.64-1.41,2.32-2.08c1.08-1.01,2-2.16,2.74-3.44
			c0.68-1,0.79-2.28,0.28-3.38c-0.7-0.99-1.86-1.54-3.06-1.45c-1.47,0-2.94,0.22-4.34,0.65c-1.62,0.45-3.21,1.01-4.76,1.68
			c1.67-1.92,3.16-3.98,4.47-6.16c0.78-1.25,1.37-2.61,1.75-4.03c0.4-1.14,0.17-2.41-0.61-3.34c-0.93-0.78-2.19-1.01-3.33-0.6
			c-1.42,0.38-2.78,0.97-4.03,1.75c-0.35,0.2-0.71,0.42-1.07,0.66c0.22-0.65,0.41-1.27,0.57-1.87c0.43-1.41,0.65-2.87,0.65-4.34
			c0.09-1.2-0.46-2.37-1.45-3.06c-1.1-0.51-2.38-0.41-3.38,0.28c-1.27,0.74-2.43,1.66-3.44,2.74c-0.15,0.15-0.3,0.31-0.45,0.47
			c0-0.2,0-0.39,0-0.59c0.05-1.47-0.12-2.95-0.5-4.37c-0.22-1.19-1.05-2.17-2.19-2.59c-1.19-0.21-2.4,0.22-3.19,1.14
			c-1.04,1.04-1.92,2.24-2.61,3.53c-0.29,0.51-0.58,1.06-0.87,1.64c-0.15-0.79-0.32-1.53-0.5-2.23c-0.33-1.43-0.88-2.81-1.61-4.09
			C46.85,2.23,45.79,1.5,44.59,1.39L44.59,1.39z M44.59,3.71c0.04,0,0.36,0.11,0.82,0.84c0.6,1.08,1.05,2.25,1.34,3.46
			c0.47,1.86,0.8,3.76,0.99,5.67c-0.78,2.06-1.46,4.15-2.02,6.28c-0.18,0.66-0.34,1.31-0.49,1.95c-0.15-0.65-0.32-1.29-0.49-1.95
			c-0.77-2.93-1.77-5.81-2.97-8.59c0.17-1.13,0.4-2.25,0.68-3.36c0.28-1.21,0.73-2.37,1.34-3.46C44.23,3.82,44.55,3.71,44.59,3.71
			L44.59,3.71z M34.87,5.57c0.04-0.01,0.38,0,1.01,0.59c0.86,0.89,1.6,1.9,2.18,2.99c0.43,0.75,0.86,1.6,1.29,2.53
			c-0.38,2.8-0.57,5.63-0.56,8.46v0.73l-0.08-0.15c-1.37-2.4-2.91-4.7-4.59-6.89c-0.14-1.18-0.21-2.38-0.23-3.57
			c-0.04-1.24,0.1-2.48,0.4-3.68C34.55,5.77,34.83,5.58,34.87,5.57L34.87,5.57z M55.56,5.57c0.04,0.01,0.33,0.2,0.57,1.02
			c0.3,1.2,0.44,2.44,0.4,3.69c-0.01,1.07-0.08,2.27-0.23,3.57c-1.68,2.19-3.22,4.49-4.59,6.89c-0.5,0.86-0.96,1.72-1.41,2.56
			c0.05-1.02,0.07-2.07,0.07-3.14c0-2.16-0.1-4.23-0.29-6.16c0.64-1.66,1.4-3.28,2.27-4.84c0.59-1.09,1.32-2.1,2.19-2.99
			C55.18,5.58,55.51,5.56,55.56,5.57L55.56,5.57z M25.57,9.37c0.37,0.02,0.73,0.13,1.04,0.33c1.06,0.64,2.03,1.42,2.88,2.32
			c0.85,0.87,1.65,1.79,2.4,2.74c0.36,2.76,0.91,5.5,1.64,8.19c0.21,0.77,0.42,1.52,0.65,2.26c-0.38-0.39-0.77-0.79-1.16-1.19
			c-1.73-1.74-3.56-3.38-5.49-4.9c-0.71-1.61-1.3-3.26-1.78-4.94c-0.36-1.19-0.55-2.42-0.57-3.66c0.03-0.86,0.25-1.11,0.29-1.13
			c0.03-0.01,0.06-0.02,0.09-0.02L25.57,9.37z M64.78,9.37c0.06-0.01,0.12,0,0.18,0.02c0.04,0.02,0.26,0.27,0.29,1.13
			c-0.02,1.24-0.21,2.47-0.57,3.66c-0.48,1.69-1.08,3.34-1.78,4.95c-1.92,1.53-3.75,3.16-5.48,4.9c-0.4,0.39-0.78,0.79-1.16,1.19
			c0.23-0.74,0.44-1.49,0.65-2.26c0.73-2.69,1.28-5.42,1.64-8.19c0.75-0.96,1.55-1.87,2.4-2.74c0.85-0.9,1.83-1.69,2.89-2.33
			C64.11,9.52,64.44,9.41,64.78,9.37L64.78,9.37z M41.22,16.41c0.45,1.31,0.87,2.7,1.26,4.14c0.69,2.56,1.21,5.16,1.56,7.79
			c-0.16,1.32-0.25,2.57-0.28,3.71c-0.64-2.14-1.44-4.23-2.39-6.25c-0.16-1.77-0.25-3.68-0.25-5.66
			C41.12,18.87,41.15,17.62,41.22,16.41z M17.74,16.41c0.25,0.01,0.49,0.04,0.73,0.1c1.19,0.34,2.33,0.84,3.39,1.5
			c1.32,0.78,2.58,1.65,3.79,2.59c0.91,2.03,1.92,4,3.03,5.93c2.09,3.74,4.64,7.22,7.58,10.34c1.01,1.07,2.17,2,3.44,2.74
			c0.16,0.09,0.33,0.16,0.5,0.24c-0.27,0-0.54-0.03-0.81-0.1c-0.21-0.06-0.45-0.12-0.71-0.21c-0.03-0.02-0.06-0.05-0.08-0.09
			c-3.12-2.94-6.59-5.48-10.34-7.58c-0.37-0.22-0.75-0.43-1.12-0.63c-0.22-0.21-0.44-0.43-0.66-0.65c-2.93-2.85-5.5-6.05-7.66-9.52
			c-0.65-1.05-1.16-2.19-1.5-3.39c-0.19-0.84-0.04-1.14-0.02-1.17C17.43,16.42,17.59,16.39,17.74,16.41L17.74,16.41z M72.68,16.41
			c0.3,0,0.42,0.06,0.44,0.09c0.04,0.04,0.18,0.34,0,1.17c-0.34,1.19-0.85,2.33-1.5,3.39c-2.16,3.47-4.73,6.67-7.66,9.52
			c-0.22,0.22-0.44,0.44-0.67,0.66c-0.37,0.2-0.74,0.41-1.11,0.63c-3.75,2.09-7.22,4.64-10.34,7.58c-0.03,0.03-0.06,0.06-0.08,0.09
			c-0.23,0.08-0.47,0.15-0.71,0.21c-0.27,0.07-0.54,0.1-0.81,0.1c0.17-0.07,0.34-0.15,0.5-0.24c1.27-0.74,2.43-1.66,3.44-2.74
			c2.94-3.12,5.49-6.59,7.58-10.34c1.12-1.92,2.13-3.9,3.05-5.92c1.21-0.94,2.47-1.81,3.79-2.59c1.05-0.65,2.19-1.16,3.39-1.5
			C72.2,16.45,72.44,16.42,72.68,16.41L72.68,16.41z M34.98,19.07c0.58,0.9,1.16,1.84,1.73,2.82c0.89,1.54,1.69,3.07,2.38,4.54
			c0.19,2.04,0.52,4.07,1,6.06c-0.5-0.75-1.05-1.52-1.65-2.31c-1.07-2.54-1.96-5.15-2.67-7.82C35.48,21.24,35.21,20.14,34.98,19.07
			L34.98,19.07z M55.44,19.07c-0.23,1.07-0.49,2.17-0.79,3.28c-0.71,2.67-1.6,5.28-2.67,7.83c-0.95,1.23-1.82,2.51-2.61,3.85
			c-0.43,0.73-0.82,1.49-1.16,2.27c0.02-0.5,0.08-0.99,0.17-1.48c0.21-0.59,0.41-1.23,0.59-1.92c0.15-0.56,0.28-1.15,0.41-1.76
			c1.15-3.21,2.6-6.3,4.33-9.24C54.28,20.91,54.86,19.97,55.44,19.07L55.44,19.07z M48.06,20.12v0.02
			c0.03,3.47-0.28,6.94-0.91,10.35c-0.18,0.54-0.34,1.05-0.49,1.56c-0.03-1.15-0.12-2.39-0.28-3.72c0.35-2.63,0.87-5.23,1.56-7.79
			C47.98,20.4,48.02,20.26,48.06,20.12L48.06,20.12z M30.22,24.53c0.39,0.37,0.78,0.75,1.16,1.13l0,0c1.8,1.79,3.48,3.69,5.04,5.69
			c0.52,1.21,1.1,2.39,1.75,3.54c0.28,0.5,0.57,0.96,0.85,1.39c-0.36-0.31-0.74-0.66-1.13-1.05c-2.8-2.98-5.22-6.3-7.22-9.86
			C30.53,25.08,30.37,24.8,30.22,24.53L30.22,24.53z M60.2,24.53c-0.16,0.28-0.31,0.55-0.47,0.83c-2,3.57-4.42,6.88-7.22,9.86
			c-0.38,0.39-0.77,0.74-1.12,1.05c0.29-0.43,0.57-0.89,0.85-1.38c0.65-1.15,1.23-2.33,1.75-3.54c1.56-2,3.24-3.9,5.04-5.69l0,0
			C59.43,25.27,59.81,24.89,60.2,24.53L60.2,24.53z M77.83,28.36h0.34c0.86,0.02,1.11,0.26,1.13,0.29s0.09,0.37-0.32,1.13
			c-0.64,1.06-1.42,2.03-2.32,2.88c-1.62,1.56-3.36,2.98-5.21,4.25c-1.98,0.32-4.09,0.77-6.27,1.36c-4.16,1.05-8.17,2.61-11.94,4.64
			c-0.81,0.45-1.59,0.97-2.32,1.53c0.06-0.16,0.14-0.32,0.22-0.48c0.53-0.9,1.17-1.72,1.9-2.46c0.88-0.36,1.73-0.79,2.55-1.28
			c3.29-2.02,6.33-4.41,9.08-7.12c3.11-1.75,6.42-3.15,9.84-4.17C75.59,28.62,76.71,28.43,77.83,28.36L77.83,28.36z M12.26,28.36
			c1.24,0.02,2.47,0.22,3.66,0.57c3.43,1.02,6.73,2.43,9.85,4.18c2.74,2.71,5.78,5.1,9.07,7.12c0.82,0.49,1.67,0.91,2.55,1.28
			c0.74,0.74,1.38,1.56,1.91,2.46c0.08,0.15,0.16,0.31,0.22,0.48c-0.74-0.56-1.51-1.07-2.32-1.52c-3.78-2.03-7.79-3.59-11.94-4.64
			c-2.18-0.58-4.29-1.04-6.27-1.36c-1.85-1.27-3.59-2.69-5.21-4.25c-0.91-0.85-1.69-1.82-2.33-2.89c-0.4-0.76-0.34-1.09-0.31-1.13
			C11.15,28.61,11.4,28.39,12.26,28.36L12.26,28.36z M12.56,38.64c1.85,0.03,3.69,0.19,5.52,0.49c1.36,0.93,2.83,1.86,4.39,2.76
			c1.9,1.1,3.85,2.1,5.86,3c-1.63-0.13-3.35-0.2-5.14-0.2c-2.32,0-4.64,0.12-6.94,0.37c-1.65-0.64-3.25-1.39-4.8-2.25
			c-1.09-0.59-2.1-1.32-2.99-2.19c-0.59-0.63-0.61-0.96-0.6-1.01c0.01-0.05,0.2-0.32,1.02-0.57C10.08,38.73,11.32,38.6,12.56,38.64
			L12.56,38.64z M77.86,38.64c1.24-0.03,2.48,0.1,3.68,0.4c0.82,0.25,1.01,0.53,1.02,0.57c0.01,0.04-0.01,0.38-0.6,1.01
			c-0.89,0.86-1.9,1.6-2.99,2.19c-1.55,0.86-3.15,1.61-4.8,2.25c-2.31-0.25-4.62-0.37-6.94-0.36c-1.78,0-3.51,0.07-5.14,0.2
			c2-0.9,3.96-1.9,5.86-3c1.56-0.9,3.02-1.83,4.38-2.76C74.17,38.83,76.02,38.67,77.86,38.64L77.86,38.64z M24.85,40.57
			c3.89,1,7.65,2.47,11.19,4.37c0.16,0.09,0.31,0.18,0.46,0.27c-0.52-0.1-1.08-0.22-1.68-0.38C31.35,43.78,28.01,42.36,24.85,40.57
			L24.85,40.57z M65.57,40.57c-3.15,1.78-6.49,3.21-9.95,4.24c-0.6,0.17-1.17,0.29-1.68,0.38c0.15-0.09,0.3-0.18,0.45-0.27
			C57.93,43.03,61.68,41.56,65.57,40.57L65.57,40.57z M23.19,47c4.09-0.06,8.17,0.39,12.15,1.32c0.67,0.17,1.33,0.38,1.98,0.63
			c-0.79,0.1-1.59,0.14-2.39,0.14c-4.09-0.13-8.14-0.75-12.08-1.87c-0.25-0.07-0.49-0.14-0.74-0.2C22.46,47.01,22.82,47.01,23.19,47
			L23.19,47z M67.24,47c0.36,0,0.73,0,1.09,0c-0.24,0.07-0.49,0.14-0.74,0.2c-3.93,1.12-7.99,1.74-12.08,1.87
			c-0.8,0.01-1.6-0.04-2.39-0.14c0.65-0.25,1.31-0.46,1.98-0.63C59.08,47.39,63.16,46.94,67.24,47L67.24,47z M15.95,47.43
			c2.06,0.78,4.16,1.46,6.3,2.03c4.13,1.17,8.38,1.82,12.67,1.95c1.47,0.04,2.94-0.12,4.37-0.5c0.02,0,0.04-0.02,0.06-0.02
			c-0.17,0.16-0.35,0.29-0.54,0.41c-1.08,0.6-2.25,1.06-3.46,1.34c-3.98,0.93-8.06,1.37-12.15,1.32c-4.09,0.06-8.17-0.39-12.15-1.32
			c-1.21-0.29-2.37-0.74-3.45-1.34c-0.73-0.45-0.84-0.77-0.84-0.82c0-0.05,0.11-0.36,0.84-0.82c1.08-0.6,2.25-1.05,3.45-1.33
			C12.65,47.92,14.29,47.62,15.95,47.43L15.95,47.43z M74.49,47.43c1.65,0.19,3.29,0.49,4.9,0.9c1.21,0.29,2.37,0.74,3.46,1.34
			c0.73,0.45,0.84,0.78,0.84,0.82c0,0.04-0.11,0.37-0.84,0.82c-1.08,0.6-2.25,1.06-3.46,1.34c-3.98,0.93-8.06,1.37-12.15,1.32
			c-4.09,0.06-8.17-0.39-12.15-1.32c-1.21-0.29-2.37-0.74-3.46-1.34c-0.2-0.12-0.38-0.26-0.54-0.41c0.02,0,0.04,0.02,0.06,0.02
			c1.42,0.37,2.89,0.54,4.37,0.5c4.29-0.13,8.54-0.78,12.67-1.95C70.32,48.89,72.42,48.22,74.49,47.43L74.49,47.43z"/>
	</g>
	<path id="Path_159" class="st0" d="M11.86,308.35l-16.6,6.88l-27.03,11.2l-27.04-11.2l-16.6-6.88l8.54-2.74
		c4.26,0.78,8.61,0.97,12.93,0.59c0,0,20.23,0.17,21.68-6.76c0,0,5.3,8.12,22.13,6.93c4.22,0.06,8.43-0.29,12.58-1.06L11.86,308.35z
		"/>
	<path id="Path_160" class="st0" d="M10.76,311l-5.08,15.8h11.63L10.76,311z"/>
	<path id="Path_161" class="st0" d="M-63.89,316.92v16.68l31.81,12.12L-0.3,333.6v-16.68l-31.82,13.41L-63.89,316.92z"/>
	<path id="Path_162" class="st0" d="M12.63,298.78v-1.72C12.73,297.63,12.73,298.21,12.63,298.78z"/>
</g>
</svg>
