<?xml version="1.0" encoding="utf-8"?>
<!-- Generator: Adobe Illustrator 26.0.3, SVG Export Plug-In . SVG Version: 6.00 Build 0)  -->
<svg version="1.1" id="Layer_1" xmlns="http://www.w3.org/2000/svg" xmlns:xlink="http://www.w3.org/1999/xlink" x="0px" y="0px"
	 viewBox="0 0 100 100" style="enable-background:new 0 0 100 100;" xml:space="preserve">
<style type="text/css">
	.st0{opacity:0.996;}
	.st1{fill:#0E606E;}
	.st2{fill:#771C3E;}
	.st3{fill:#333333;}
	.st4{fill:#6FB8BE;}
	.st5{fill:#B92F69;}
	.st6{opacity:0.4;fill:#FFFFFF;enable-background:new    ;}
</style>
<g id="Group_467" transform="translate(-475 -3402.299)" class="st0">
	<path id="Path_971" class="st1" d="M565.1,3441.9c-1-0.8-2.2-1.5-3.3-2.1l-16.9-14.6c-2.1-2.9-6.5-4-10.5-2.8
		c-3.6,1.1-5.9,4-5.9,7.3v2.5h-7v-2.5c0-3.4-2.3-6.2-5.9-7.3c-4-1.3-8.3-0.1-10.5,2.8l-16.9,14.6c-1.2,0.6-2.3,1.3-3.3,2.1
		c-4.8,3.7-7.9,9.2-8.6,15.2c-1.5,12.5,7.4,23.8,19.9,25.3c0.9,0.1,1.9,0.2,2.8,0.2c11.4,0,21.1-8.6,22.4-20c0.2-1.7,0.2-3.4,0-5.1
		v-5.4h7.3v5.4c-0.2,1.7-0.2,3.4,0,5.1c1.4,11.4,11,19.9,22.4,20c0.9,0,1.9-0.1,2.8-0.2v-0.1c6-0.7,11.4-3.8,15.1-8.5
		C576.8,3464,575,3449.7,565.1,3441.9C565.1,3441.9,565.1,3441.9,565.1,3441.9z M553.6,3479.2c-10.7,1.3-20.4-6.3-21.7-16.9
		c0,0,0,0,0,0c-1.3-10.7,6.3-20.4,16.9-21.7c0,0,0,0,0,0c10.7-1.3,20.4,6.3,21.7,16.9c0,0,0,0,0,0
		C571.8,3468.1,564.3,3477.9,553.6,3479.2z"/>
	<path id="Path_972" class="st2" d="M545.2,3458.2v9.5c0,1.2-1,2.1-2.1,2.2H540c-1.2,0-2.1-1-2.1-2.1c0,0,0,0,0,0v-9.5
		c0-1.2,0.9-2.1,2.1-2.2c0,0,0,0,0,0h3.1C544.2,3456,545.2,3457,545.2,3458.2z"/>
	<path id="Path_973" class="st3" d="M552,3448.5H549c-1.2,0-2.1,1-2.1,2.1l0,0v17c0,1.2,0.9,2.1,2.1,2.2c0,0,0,0,0,0h3.1
		c1.2,0,2.1-1,2.1-2.1c0,0,0,0,0,0v-17C554.2,3449.5,553.2,3448.5,552,3448.5L552,3448.5z"/>
	<path id="Path_974" class="st4" d="M561,3453.4H558c-1.2,0-2.2,1-2.2,2.2l0,0v12.2c0,1.2,1,2.2,2.2,2.2h3.1c1.2,0,2.2-1,2.2-2.2
		l0,0v-12.2C563.2,3454.3,562.2,3453.4,561,3453.4z"/>
	<path id="Path_975" class="st5" d="M499.6,3458.1l15.4-9.1c-3.1-4.7-8.2-7.8-13.8-8.5c-0.5-0.1-1.1-0.1-1.6-0.1L499.6,3458.1z"/>
	<path id="Path_976" class="st6" d="M512.9,3473.4l-15.8-11.1c-0.4-0.3-0.7-0.8-0.7-1.3v-20.4c-8.9,1.1-15.8,8.1-16.9,17
		c-1.3,10.7,6.3,20.4,16.9,21.7c5.1,0.6,10.3-0.8,14.3-4C511.6,3474.7,512.3,3474,512.9,3473.4z"/>
	<path id="Path_977" class="st2" d="M516.6,3451.8l-15.5,9.3l14,9.7C518.8,3465.2,519.4,3458,516.6,3451.8z"/>
</g>
</svg>
