<?xml version="1.0" encoding="utf-8"?>
<!-- Generator: Adobe Illustrator 25.4.1, SVG Export Plug-In . SVG Version: 6.00 Build 0)  -->
<svg version="1.1" id="Layer_1" xmlns="http://www.w3.org/2000/svg" xmlns:xlink="http://www.w3.org/1999/xlink" x="0px" y="0px"
	 viewBox="0 0 100 100" style="enable-background:new 0 0 100 100;" xml:space="preserve">
<style type="text/css">
	.st0{fill:#FFFFFF;}
</style>
<g id="Group_403" transform="translate(-720.006 -461.456)">
	<path id="Path_881" class="st0" d="M744.3,531.74c0.96,1.3,2.4,2.17,4,2.4c0.3,0.05,0.61,0.07,0.92,0.07c1.3,0,2.57-0.42,3.61-1.2
		l1.12-0.83l15.89,14.89l9.14-6.75l-11.7-15.82l29.86-11.19c1.74-0.65,2.63-2.6,1.97-4.34c-0.11-0.29-0.26-0.57-0.44-0.82
		l-20.18-27.32c-0.63-0.85-1.62-1.36-2.68-1.37h-0.04c-1.05,0-2.03,0.48-2.67,1.31l-23.34,30.29l-8.5,6.28
		c-2.7,2-3.28,5.81-1.28,8.52L744.3,531.74z M768.38,530.06l2.48,3.36l-3.71,2.74l1.43,1.94l3.71-2.74l3.3,4.47l-5.58,4.12
		l-14.1-13.21l5.41-4l3.6-1.35l2.01,2.72l-3.71,2.74l1.44,1.94L768.38,530.06z M775.01,482.26c0.18-0.24,0.46-0.37,0.76-0.37h0.01
		c0.3,0,0.58,0.15,0.76,0.39l20.18,27.32c0.31,0.43,0.22,1.02-0.2,1.34c-0.07,0.05-0.15,0.1-0.23,0.13l-35.11,13.17l-9.06-12.25
		L775.01,482.26z M741.23,521.71c0.14-0.97,0.67-1.83,1.45-2.41l7.66-5.66l8.7,11.78l-7.67,5.66c-1.63,1.21-3.94,0.86-5.15-0.77
		l-4.33-5.86C741.33,523.66,741.08,522.68,741.23,521.71L741.23,521.71z"/>
	
		<rect id="Rectangle_360" x="790.49" y="486.3" transform="matrix(0.8043 -0.5942 0.5942 0.8043 -133.5166 569.6133)" class="st0" width="15.09" height="2.41"/>
	
		<rect id="Rectangle_361" x="783.65" y="479.16" transform="matrix(0.38 -0.925 0.925 0.38 44.2618 1026.7759)" class="st0" width="8.82" height="2.41"/>
	
		<rect id="Rectangle_362" x="797.52" y="497.93" transform="matrix(0.9958 -0.0918 0.0918 0.9958 -42.4331 75.7224)" class="st0" width="8.82" height="2.41"/>
	
		<rect id="Rectangle_363" x="744.81" y="522.25" transform="matrix(0.8043 -0.5942 0.5942 0.8043 -164.396 547.7487)" class="st0" width="9.18" height="2.41"/>
	
		<rect id="Rectangle_364" x="742.14" y="518.64" transform="matrix(0.8041 -0.5945 0.5945 0.8041 -162.7649 545.7242)" class="st0" width="9.18" height="2.41"/>
	
		<rect id="Rectangle_365" x="747.47" y="525.86" transform="matrix(0.8043 -0.5942 0.5942 0.8043 -166.0195 550.0407)" class="st0" width="9.18" height="2.41"/>
</g>
</svg>
