<?xml version="1.0" encoding="utf-8"?>
<!-- Generator: Adobe Illustrator 25.4.1, SVG Export Plug-In . SVG Version: 6.00 Build 0)  -->
<svg version="1.1" id="Layer_1" xmlns="http://www.w3.org/2000/svg" xmlns:xlink="http://www.w3.org/1999/xlink" x="0px" y="0px"
	 viewBox="0 0 100 100" style="enable-background:new 0 0 100 100;" xml:space="preserve">
<style type="text/css">
	.st0{fill:#FFFFFF;}
</style>
<g id="Group_417" transform="translate(-1218.143 -627.507)">
	<path id="Path_914" class="st0" d="M1244.1,663.9c0-1.01,0.82-1.83,1.83-1.83c0,0,0,0,0,0h41.27l-12.21-12.21
		c-0.73-0.7-0.74-1.86-0.04-2.59c0.7-0.73,1.86-0.74,2.59-0.04l0.04,0.04l15.34,15.34c0.71,0.72,0.71,1.88,0,2.59
		c-0.34,0.34-0.81,0.54-1.3,0.54h-45.69C1244.92,665.73,1244.1,664.91,1244.1,663.9C1244.09,663.9,1244.09,663.9,1244.1,663.9
		L1244.1,663.9z M1291.61,691.29h-45.68c-1.01,0-1.83,0.81-1.84,1.83c0,0.49,0.19,0.96,0.54,1.3l15.34,15.34
		c0.69,0.74,1.85,0.78,2.59,0.09c0.74-0.69,0.78-1.85,0.09-2.59c-0.02-0.02-0.03-0.04-0.05-0.05l-0.04-0.04l-12.2-12.22h41.26
		c1.01,0,1.83-0.82,1.83-1.83C1293.45,692.1,1292.63,691.28,1291.61,691.29L1291.61,691.29z"/>
</g>
</svg>
