<?xml version="1.0" encoding="utf-8"?>
<!-- Generator: Adobe Illustrator 25.4.1, SVG Export Plug-In . SVG Version: 6.00 Build 0)  -->
<svg version="1.1" id="Layer_1" xmlns="http://www.w3.org/2000/svg" xmlns:xlink="http://www.w3.org/1999/xlink" x="0px" y="0px"
	 viewBox="0 0 100 100" style="enable-background:new 0 0 100 100;" xml:space="preserve">
<style type="text/css">
	.st0{fill:#FFFFFF;stroke:#FFFFFF;}
</style>
<path id="Path_830" class="st0" d="M80.86,59.35c-1.28-1.61-3.47-2.2-5.39-1.44v-17.4c0-0.49-0.26-0.95-0.68-1.2
	c-0.41-0.25-0.92-0.26-1.34-0.04c-1.46,0.78-3.27,0.23-4.05-1.23c-0.56-1.06-0.44-2.35,0.31-3.28c0.91-1.11,2.47-1.43,3.74-0.78
	c0.42,0.23,0.93,0.21,1.33-0.04c0.42-0.25,0.68-0.71,0.68-1.2v-5.74c0-2.24-1.82-4.06-4.06-4.06h-5.24
	c0.94-2.42-0.26-5.14-2.68-6.08c-2.42-0.94-5.14,0.26-6.08,2.68c-0.43,1.1-0.43,2.31,0,3.41h-17.4c-0.49,0-0.95,0.26-1.2,0.68
	c-0.25,0.41-0.26,0.92-0.04,1.35c0.77,1.46,0.21,3.27-1.25,4.04c-1.46,0.77-3.27,0.21-4.04-1.25c-0.23-0.43-0.35-0.91-0.35-1.4
	c0-0.49,0.12-0.97,0.35-1.4c0.23-0.42,0.21-0.93-0.03-1.34c-0.25-0.42-0.71-0.68-1.2-0.68h-5.73c-2.24,0-4.06,1.82-4.06,4.06v5.24
	c-2.42-0.94-5.14,0.26-6.08,2.68c-0.94,2.42,0.26,5.14,2.68,6.08c1.1,0.43,2.31,0.43,3.41,0v17.4c0,0.49,0.26,0.95,0.68,1.2
	c0.41,0.25,0.92,0.26,1.34,0.03c1.46-0.78,3.27-0.22,4.04,1.24c0.56,1.05,0.44,2.34-0.31,3.27c-0.91,1.11-2.47,1.43-3.74,0.78
	c-0.42-0.23-0.93-0.21-1.33,0.03c-0.42,0.25-0.68,0.71-0.68,1.2v5.74c0,2.24,1.82,4.06,4.06,4.06h5.24
	c-0.95,2.42,0.24,5.14,2.66,6.09c0.21,0.08,0.42,0.15,0.63,0.2c0.36,0.08,0.72,0.12,1.08,0.12c2.6,0,4.7-2.1,4.71-4.69
	c0-0.59-0.11-1.17-0.32-1.72h17.4c0.49,0,0.95-0.26,1.2-0.68c0.25-0.41,0.26-0.92,0.04-1.35c-0.77-1.46-0.21-3.27,1.25-4.04
	c1.46-0.77,3.27-0.21,4.04,1.25c0.23,0.43,0.35,0.91,0.35,1.4c0,0.49-0.12,0.97-0.35,1.4c-0.23,0.42-0.21,0.93,0.03,1.34
	c0.25,0.42,0.71,0.68,1.2,0.68h5.74c2.24,0,4.06-1.82,4.06-4.06v-5.23c2.42,0.95,5.14-0.24,6.1-2.65
	C82.18,62.45,81.91,60.67,80.86,59.35z M57.91,24.66c0.49,0,0.95-0.26,1.2-0.68c0.25-0.41,0.26-0.92,0.03-1.34
	c-0.23-0.43-0.35-0.91-0.35-1.4c0-1.65,1.33-3,2.99-3c1.65,0,3,1.33,3,2.99c0,0.49-0.12,0.98-0.35,1.42
	c-0.23,0.42-0.21,0.93,0.04,1.34c0.25,0.42,0.71,0.68,1.2,0.68h5.74c1.3,0,2.35,1.05,2.35,2.35v5.24c-2.42-0.94-5.14,0.26-6.08,2.68
	c-0.94,2.42,0.26,5.14,2.68,6.08c1.1,0.43,2.31,0.43,3.41,0v7.59h-8.1c-0.49,0-0.95,0.26-1.2,0.68c-0.25,0.41-0.26,0.92-0.04,1.35
	c0.08,0.16,0.15,0.32,0.21,0.49c0.16,0.51,0.19,1.06,0.07,1.58c-0.37,1.61-1.98,2.61-3.59,2.24c-1.36-0.31-2.32-1.52-2.32-2.92
	c0-0.49,0.12-0.97,0.35-1.4c0.23-0.42,0.21-0.93-0.03-1.34c-0.25-0.42-0.71-0.68-1.2-0.68h-8.1v-7.59c2.41,0.95,5.13-0.24,6.08-2.65
	c0.18-0.45,0.28-0.92,0.31-1.39c0.01-0.12,0.02-0.24,0.02-0.35c0-0.36-0.04-0.72-0.12-1.08c-0.34-1.41-1.32-2.59-2.64-3.19
	c-0.09-0.04-0.17-0.09-0.27-0.12l-0.03-0.01c-0.2-0.07-0.4-0.13-0.6-0.18c-0.23-0.05-0.46-0.08-0.7-0.1
	c-0.7-0.03-1.39,0.07-2.04,0.31v-7.6H57.91z M22.14,39.27c-1.27,0.66-2.83,0.33-3.74-0.77c-1.03-1.29-0.83-3.17,0.46-4.2
	c0.93-0.75,2.22-0.87,3.28-0.3c0.42,0.23,0.93,0.21,1.34-0.03c0.42-0.25,0.68-0.71,0.68-1.2v-5.74c0-1.3,1.05-2.35,2.35-2.35h5.24
	c-0.94,2.42,0.26,5.14,2.68,6.08c2.42,0.94,5.14-0.26,6.08-2.68c0.43-1.1,0.43-2.31,0-3.41h7.59v8.1c0,0.49,0.26,0.95,0.68,1.2
	c0.41,0.25,0.92,0.26,1.34,0.03c1.34-0.72,3.01-0.31,3.87,0.95c0.21,0.3,0.36,0.63,0.44,0.98c0.05,0.23,0.08,0.46,0.08,0.69
	c0,0.09-0.02,0.18-0.03,0.27c-0.06,0.95-0.59,1.81-1.41,2.29c-0.75,0.45-1.65,0.56-2.48,0.3c-0.17-0.05-0.33-0.12-0.48-0.2
	c-0.42-0.23-0.93-0.21-1.33,0.04c-0.42,0.25-0.68,0.71-0.68,1.2v8.09h-7.6c0.95-2.42-0.24-5.15-2.66-6.1
	c-0.89-0.35-1.87-0.42-2.81-0.2c-0.21,0.05-0.42,0.11-0.63,0.19c-1.45,0.57-2.53,1.83-2.87,3.35l0,0c-0.21,0.92-0.13,1.87,0.21,2.75
	h-7.59v-8.09c0-0.49-0.26-0.95-0.68-1.2C23.07,39.06,22.56,39.04,22.14,39.27z M40.01,74.26c-0.49,0-0.95,0.26-1.2,0.68
	c-0.25,0.41-0.26,0.92-0.03,1.33c0.23,0.43,0.35,0.91,0.35,1.4c0,1.65-1.33,3-2.99,3s-3-1.33-3-2.99c0-0.49,0.12-0.98,0.35-1.42
	c0.23-0.42,0.21-0.93-0.04-1.34c-0.25-0.42-0.71-0.68-1.2-0.68h-5.74c-1.3,0-2.35-1.05-2.35-2.35v-5.24
	c2.42,0.94,5.14-0.26,6.08-2.68c0.94-2.42-0.26-5.14-2.68-6.08c-1.1-0.43-2.31-0.43-3.41,0v-7.59h8.1c0.49,0,0.95-0.26,1.2-0.68
	c0.25-0.41,0.26-0.92,0.04-1.35c-0.34-0.64-0.44-1.37-0.28-2.07l0,0c0.15-0.68,0.54-1.29,1.1-1.71c0.33-0.25,0.71-0.43,1.11-0.53
	c0.9-0.22,1.85-0.01,2.58,0.57c0.14,0.12,0.27,0.24,0.38,0.38c0.03,0.03,0.07,0.06,0.1,0.1c0.04,0.05,0.06,0.11,0.1,0.16
	c0.35,0.5,0.54,1.09,0.55,1.7c0,0.49-0.12,0.97-0.35,1.4c-0.23,0.42-0.21,0.93,0.03,1.34c0.25,0.42,0.71,0.68,1.2,0.68h8.1v7.59
	c-2.41-0.95-5.13,0.24-6.08,2.65c-0.18,0.45-0.28,0.92-0.31,1.39c-0.01,0.12-0.02,0.24-0.02,0.35c0,0.36,0.04,0.72,0.12,1.08
	c0.6,2.53,3.13,4.09,5.66,3.49c0.22-0.05,0.43-0.12,0.63-0.2v7.59L40.01,74.26z M80.09,62.99c-0.39,1.6-2,2.59-3.61,2.2
	c-0.24-0.06-0.48-0.15-0.7-0.27c-0.42-0.23-0.93-0.21-1.34,0.03c-0.42,0.25-0.68,0.71-0.68,1.2v5.74c0,1.3-1.05,2.35-2.35,2.35
	h-5.24c0.94-2.42-0.26-5.14-2.68-6.08c-2.42-0.94-5.14,0.26-6.08,2.68c-0.43,1.1-0.43,2.31,0,3.41h-7.59v-8.1
	c0-0.49-0.26-0.95-0.68-1.2c-0.41-0.25-0.92-0.26-1.34-0.04c-0.47,0.25-1,0.37-1.53,0.35c-0.18-0.01-0.36-0.03-0.54-0.07
	c-1.1-0.25-1.97-1.11-2.24-2.21c-0.05-0.23-0.08-0.46-0.08-0.69c0-0.09,0.02-0.18,0.03-0.27c0.04-0.59,0.26-1.15,0.62-1.61
	c0.55-0.68,1.37-1.08,2.25-1.11c0.52-0.02,1.04,0.09,1.5,0.34c0.42,0.23,0.93,0.21,1.33-0.04c0.42-0.25,0.68-0.71,0.68-1.2v-8.1
	h7.59c-0.87,2.16,0,4.64,2.03,5.78c0.05,0.03,0.1,0.06,0.16,0.09c0.2,0.11,0.41,0.2,0.62,0.28l0.02,0.01
	c0.22,0.07,0.44,0.13,0.67,0.17c0.06,0.01,0.12,0.02,0.18,0.03c0.22,0.03,0.44,0.05,0.67,0.06h0.03c0.36,0,0.73-0.04,1.08-0.12
	c1.75-0.42,3.1-1.79,3.5-3.54l0,0c0.21-0.92,0.13-1.87-0.21-2.75h7.59v8.09c0,0.49,0.26,0.95,0.68,1.2
	c0.41,0.25,0.91,0.26,1.33,0.04c1.27-0.66,2.83-0.33,3.74,0.78C80.1,61.14,80.31,62.09,80.09,62.99L80.09,62.99z"/>
</svg>
