<?xml version="1.0" encoding="utf-8"?>
<!-- Generator: Adobe Illustrator 25.4.1, SVG Export Plug-In . SVG Version: 6.00 Build 0)  -->
<svg version="1.1" id="Layer_1" xmlns="http://www.w3.org/2000/svg" xmlns:xlink="http://www.w3.org/1999/xlink" x="0px" y="0px"
	 viewBox="0 0 100 100" style="enable-background:new 0 0 100 100;" xml:space="preserve">
<style type="text/css">
	.st0{fill:#FFFFFF;}
</style>
<g id="Group_428" transform="translate(-1403.993 -742.399)">
	<g id="Group_427" transform="translate(1420.225 759.028)">
		<path id="Path_934" class="st0" d="M38.3,45.8h-5.38V29.58h5.4v1.87c0.27-0.25,0.37-0.34,0.47-0.44c1.83-1.83,3.96-2.48,6.38-1.42
			c2.42,0.9,4,3.22,3.96,5.8c0.04,3.44,0.01,6.88,0.01,10.39h-5.37c-0.03-0.37-0.07-0.77-0.08-1.17c-0.01-2.64,0.01-5.29-0.01-7.93
			c-0.01-1.92-1.12-3.22-2.7-3.21s-2.68,1.35-2.69,3.23C38.3,39.7,38.3,42.68,38.3,45.8z"/>
		<path id="Path_935" class="st0" d="M23.9,29.54h5.28V45.8H23.9V29.54z"/>
		<path id="Path_936" class="st0" d="M26.5,19.87c1.8,0.02,3.24,1.48,3.22,3.28c-0.02,1.8-1.48,3.24-3.28,3.22
			c-1.77-0.02-3.2-1.45-3.22-3.22c-0.01-1.81,1.46-3.28,3.27-3.28C26.49,19.87,26.49,19.87,26.5,19.87z"/>
	</g>
	<path id="Path_937" class="st0" d="M1473.69,771.78c-5.7-4.58-12.94-6.8-20.23-6.18c-1.35-2.91-4.81-4.18-7.72-2.83
		s-4.18,4.81-2.83,7.72c1.35,2.91,4.81,4.18,7.72,2.83c1.89-0.87,3.16-2.69,3.35-4.76c14.1-1.03,26.35,9.57,27.38,23.67
		c0.47,6.45-1.52,12.84-5.57,17.89c-0.5,0.66-0.37,1.59,0.28,2.09c0.63,0.48,1.54,0.38,2.05-0.23
		C1487.98,799.66,1486,781.68,1473.69,771.78z"/>
	<path id="Path_938" class="st0" d="M1463.37,814.33c-3,0.01-5.5,2.31-5.75,5.3c-14.1,1.02-26.36-9.57-27.38-23.67
		c-0.47-6.45,1.52-12.84,5.58-17.89c0.5-0.65,0.39-1.59-0.27-2.09c-0.64-0.49-1.55-0.39-2.06,0.23
		c-9.89,12.32-7.91,30.32,4.41,40.21c5.07,4.07,11.37,6.29,17.87,6.29c0.79,0,1.59-0.05,2.38-0.12c1.36,2.89,4.81,4.14,7.7,2.78
		c2.89-1.36,4.14-4.81,2.78-7.7C1467.66,815.63,1465.62,814.34,1463.37,814.33L1463.37,814.33z"/>
</g>
</svg>
