<?xml version="1.0" encoding="utf-8"?>
<!-- Generator: Adobe Illustrator 26.0.3, SVG Export Plug-In . SVG Version: 6.00 Build 0)  -->
<svg version="1.1" id="Layer_1" xmlns="http://www.w3.org/2000/svg" xmlns:xlink="http://www.w3.org/1999/xlink" x="0px" y="0px"
	 viewBox="0 0 100 100" style="enable-background:new 0 0 100 100;" xml:space="preserve">
<style type="text/css">
	.st0{fill:#606060;}
	.st1{fill:#0E606E;}
	.st2{fill:#B92F69;}
	.st3{fill:#771C3E;}
	.st4{opacity:0.4;}
	.st5{fill:#333333;}
	.st6{fill:#6FB8BE;}
</style>
<g id="Group_41" transform="translate(12.335 -165.283)">
	<rect id="Rectangle_19" x="42" y="185.4" class="st0" width="6.3" height="36.2"/>
	<rect id="Rectangle_20" x="52" y="191" class="st1" width="6.3" height="30.6"/>
	<rect id="Rectangle_21" x="62.7" y="198" class="st2" width="6.3" height="23.7"/>
	<rect id="Rectangle_22" x="73.6" y="206.3" class="st3" width="6.3" height="15.3"/>
	<g id="Group_40" transform="translate(-12.335 175.869)">
		<g id="Group_39">
			<g id="Group_34" transform="translate(0 16.463)" class="st4">
				<path id="Path_35" class="st1" d="M9.8,20.1l21.8,9.9H7.8C7.8,26.7,8.5,23.3,9.8,20.1z"/>
			</g>
			<g id="Group_35" transform="translate(2.32 3.673)">
				<path id="Path_36" class="st1" d="M18.5,20.1l12.2,22.2L7.8,32C10.1,27.1,13.8,22.9,18.5,20.1z"/>
			</g>
			<g id="Group_36" transform="translate(13.812)" class="st4">
				<path id="Path_37" class="st2" d="M39,27.8L20.1,45.8L7.8,23.3C18.1,17.8,30.8,19.6,39,27.8L39,27.8z"/>
			</g>
			<g id="Group_38" transform="translate(26.773 8.419)">
				<g id="Group_37" transform="translate(0)">
					<path id="Path_38" class="st5" d="M33.8,38.1h-26l18.9-18C31.3,25,33.8,31.4,33.8,38.1z"/>
				</g>
			</g>
		</g>
	</g>
	<path id="Path_39" class="st6" d="M22.3,221.5l12.4,7.1l12.6-3.6l6.3,8l9.2-8l6.3,7.1v13.4H22.3V221.5z"/>
	<path id="Path_40" class="st1" d="M22.3,232.2l11.9,5.6l9.8-7.8l9.4,9.4l6.3-3.6l9.2,3.6v6.2H22.3V232.2z"/>
	<path id="Path_41" class="st5" d="M22.8,245.5v-33.1h-0.5v33.7h47.6v-0.6H22.8z"/>
</g>
</svg>
