<?xml version="1.0" encoding="utf-8"?>
<!-- Generator: Adobe Illustrator 25.4.1, SVG Export Plug-In . SVG Version: 6.00 Build 0)  -->
<svg version="1.1" id="Layer_1" xmlns="http://www.w3.org/2000/svg" xmlns:xlink="http://www.w3.org/1999/xlink" x="0px" y="0px"
	 viewBox="0 0 100 100" style="enable-background:new 0 0 100 100;" xml:space="preserve">
<style type="text/css">
	.st0{fill:#FFFFFF;}
</style>
<g id="Group_84" transform="translate(164.776 -197.423)">
	<path id="Path_146" class="st0" d="M-82.44,214.04h-12.63v-8.32c0-1.47-1.19-2.66-2.66-2.66c-1.47,0-2.66,1.19-2.66,2.66v8.32
		h-31.03v-8.32c0-1.47-1.19-2.66-2.66-2.66c-1.47,0-2.66,1.19-2.66,2.66v8.32h-12.63c-5.14,0.01-9.3,4.17-9.31,9.31v61.81
		c0,5.14,4.17,9.3,9.31,9.31h66.93c5.14-0.01,9.3-4.17,9.31-9.31v-61.81C-73.14,218.21-77.3,214.05-82.44,214.04z M-149.37,219.36
		h12.63v8.96c0,1.47,1.19,2.66,2.66,2.66c1.47,0,2.66-1.19,2.66-2.66v-8.96h31.03v8.96c0,1.47,1.19,2.66,2.66,2.66
		c1.47,0,2.66-1.19,2.66-2.66v-8.96h12.63c2.2,0.01,3.98,1.79,3.99,3.99v19.63h-74.91v-19.63
		C-153.35,221.15-151.57,219.36-149.37,219.36z M-82.44,289.15h-66.93c-2.2-0.01-3.98-1.79-3.99-3.99V248.3h74.91v36.86
		C-78.46,287.36-80.24,289.15-82.44,289.15z"/>
	<path id="Path_147" class="st0" d="M-99.75,266.94c-1.2,0.08-2.31,0.67-3.04,1.62c-1.21,1.54-1.82,3.46-1.71,5.41v2.42
		c0,0.5-0.41,0.91-0.91,0.91c-3.26,0-5.9,2.64-5.9,5.9c0,0.5-0.41,0.91-0.91,0.91c-0.5,0-0.91-0.41-0.91-0.91
		c0.01-3.91,2.93-7.19,6.81-7.66v-0.66h-20.16v1.92c0,4.75,2.38,9.19,6.34,11.82c0.25,0.17,0.4,0.45,0.4,0.76v0.97
		c0,0.51,0.41,0.92,0.92,0.92c0,0,0,0,0,0h13.04c0.51,0,0.92-0.41,0.92-0.92c0,0,0,0,0,0v-0.97c0-0.3,0.15-0.59,0.4-0.76
		c3.96-2.63,6.34-7.06,6.34-11.82c0,0-0.01-6.2-0.01-8.23c0.08-0.82-0.52-1.55-1.34-1.63C-99.57,266.93-99.66,266.93-99.75,266.94z
		 M-95.74,242.98h-40.33c-1.39,0-2.52,1.13-2.52,2.52v25.04c0,1.39,1.13,2.52,2.52,2.52h29.78c0.07-2.07,0.81-4.07,2.11-5.68
		c1.08-1.35,2.69-2.18,4.43-2.26c1.79-0.1,3.33,1.27,3.44,3.06c0.01,0.13,0.01,0.25,0,0.38c0,0.95,0,2.79,0.01,4.5h0.57
		c1.39,0,2.52-1.13,2.52-2.52V245.5C-93.22,244.11-94.35,242.98-95.74,242.98L-95.74,242.98z M-115.9,264h-13.16v-1.81h13.16V264z
		 M-102.74,258.03h-26.32v-1.82h26.32V258.03z M-102.74,252.05h-26.32v-1.82h26.32V252.05z"/>
</g>
</svg>
