<?xml version="1.0" encoding="utf-8"?>
<!-- Generator: Adobe Illustrator 25.4.1, SVG Export Plug-In . SVG Version: 6.00 Build 0)  -->
<svg version="1.1" id="Layer_1" xmlns="http://www.w3.org/2000/svg" xmlns:xlink="http://www.w3.org/1999/xlink" x="0px" y="0px"
	 viewBox="0 0 100 100" style="enable-background:new 0 0 100 100;" xml:space="preserve">
<style type="text/css">
	.st0{fill:#FFFFFF;stroke:#FFFFFF;}
</style>
<g id="Group_359" transform="translate(-3.5 -12.76)">
	<path id="Path_841" class="st0" d="M66.26,47.04V34.01H18.19v34.5h4.58l9.81,9.97v-9.97h7.77v13.04h33.96v9.96l9.89-9.96h4.61
		v-34.5L66.26,47.04z M87.27,80.01h-3.72l-7.71,7.77v-7.77H41.89v-11.5h24.37V48.58h21.02V80.01z M31.05,74.74l-7.63-7.76h-3.69
		V35.55h45v31.43H31.05V74.74z"/>
	<path id="Path_842" class="st0" d="M49.05,62.96v0.92h7.21V46.54h-7.21v0.92h-3.58v-7.11c0-1.39-1.12-2.51-2.51-2.51
		c-1.39,0-2.51,1.12-2.51,2.51v7.11h-9.74c-1.39,0-2.51,1.12-2.51,2.51c0,0.65,0.25,1.28,0.71,1.74c-0.94,0.97-0.94,2.51,0,3.49
		c-0.94,0.97-0.94,2.51,0,3.49c-0.96,0.99-0.94,2.58,0.06,3.55c0.47,0.45,1.09,0.71,1.74,0.71h18.34V62.96z M54.72,62.35h-4.14
		V48.08h4.14L54.72,62.35z M30.71,61.43c-0.54,0-0.98-0.44-0.98-0.98c0-0.54,0.44-0.97,0.98-0.97c0.42,0.02,0.78-0.32,0.8-0.74
		c0.02-0.42-0.32-0.78-0.74-0.8c-0.02,0-0.04,0-0.06,0c-0.54,0-0.98-0.44-0.98-0.98c0-0.54,0.44-0.97,0.98-0.97
		c0.42,0.02,0.78-0.32,0.8-0.74c0.02-0.42-0.32-0.78-0.74-0.8c-0.02,0-0.04,0-0.06,0c-0.54,0-0.98-0.44-0.98-0.98
		c0-0.54,0.44-0.97,0.98-0.97c0.42,0.02,0.78-0.32,0.8-0.74c0.02-0.42-0.32-0.78-0.74-0.8c-0.02,0-0.04,0-0.06,0
		c-0.54,0-0.98-0.44-0.98-0.97c0-0.54,0.44-0.98,0.98-0.98h10.5c0.29,0,0.55-0.17,0.67-0.42l0,0c0.06-0.11,0.09-0.22,0.09-0.34
		v-7.88c0-0.54,0.44-0.97,0.97-0.97c0.54,0,0.98,0.44,0.98,0.97v7.88c0.01,0.42,0.35,0.75,0.77,0.77h4.35v12.43H30.71V61.43z"/>
	<path id="Path_843" class="st0" d="M69.24,55.98h12.74c0.42,0.02,0.78-0.32,0.8-0.74s-0.32-0.78-0.74-0.8c-0.02,0-0.04,0-0.06,0
		H69.24c-0.42-0.02-0.78,0.32-0.8,0.74s0.32,0.78,0.74,0.8C69.21,55.98,69.23,55.98,69.24,55.98z"/>
	<path id="Path_844" class="st0" d="M69.24,64.99h12.74c0.42,0.02,0.78-0.32,0.8-0.74c0.02-0.42-0.32-0.78-0.74-0.8
		c-0.02,0-0.04,0-0.06,0H69.24c-0.42-0.02-0.78,0.32-0.8,0.74c-0.02,0.42,0.32,0.78,0.74,0.8C69.21,64.99,69.23,64.99,69.24,64.99z"
		/>
	<path id="Path_845" class="st0" d="M81.98,72.46h-34.8c-0.42,0.02-0.76,0.37-0.74,0.8c0.01,0.4,0.34,0.73,0.74,0.74h34.8
		c0.42,0.02,0.78-0.32,0.8-0.74c0.02-0.42-0.32-0.78-0.74-0.8C82.01,72.46,82,72.46,81.98,72.46z"/>
</g>
</svg>
