<?xml version="1.0" encoding="utf-8"?>
<!-- Generator: Adobe Illustrator 26.0.3, SVG Export Plug-In . SVG Version: 6.00 Build 0)  -->
<svg version="1.1" id="Layer_1" xmlns="http://www.w3.org/2000/svg" xmlns:xlink="http://www.w3.org/1999/xlink" x="0px" y="0px"
	 viewBox="0 0 100 100" style="enable-background:new 0 0 100 100;" xml:space="preserve">
<style type="text/css">
	.st0{opacity:0.998;}
	.st1{fill:#333333;}
	.st2{fill:#FFFFFF;}
	.st3{fill:#0E606E;}
</style>
<g id="Group_33" transform="translate(-50.861 36)" class="st0">
	<path id="Path_30" class="st1" d="M129.5-9.6h-27v47.2h27c0.9,0,1.7-0.7,1.7-1.7c0,0,0,0,0,0V-7.9C131.2-8.8,130.5-9.6,129.5-9.6
		C129.5-9.6,129.5-9.6,129.5-9.6z"/>
	<path id="Path_31" class="st2" d="M114.3-1.2h11.8v5.1h-11.8V-1.2z M114.3,15.7h11.8v5.1h-11.8V15.7z M114.3,24.1h11.8v5.1h-11.8
		V24.1z M114.3,7.3h11.8v5.1h-11.8V7.3z M102.5-1.2h8.4v5.1h-8.4V-1.2z M102.5,15.7h8.4v5.1h-8.4V15.7z M102.5,24.1h8.4v5.1h-8.4
		V24.1z M102.5,7.3h8.4v5.1h-8.4V7.3z"/>
	<path id="Path_32" class="st3" d="M105.9,44.3l-35.4-6.7V-9.6l35.4-6.7V44.3z"/>
	<path id="Path_33" class="st2" d="M92.6,25.8l-4.1-7.7c-0.2-0.5-0.4-1-0.5-1.6H88c-0.1,0.6-0.3,1.1-0.5,1.7l-4.1,7.6h-6.3L84.6,14
		L77.7,2.2h6.5l3.4,7.1c0.3,0.6,0.5,1.3,0.7,2h0.1c0.1-0.5,0.4-1.1,0.7-2.1l3.8-7h5.9l-7.1,11.7L99,25.8L92.6,25.8L92.6,25.8z"/>
</g>
</svg>
