<?xml version="1.0" encoding="utf-8"?>
<!-- Generator: Adobe Illustrator 25.4.1, SVG Export Plug-In . SVG Version: 6.00 Build 0)  -->
<svg version="1.1" id="Layer_1" xmlns="http://www.w3.org/2000/svg" xmlns:xlink="http://www.w3.org/1999/xlink" x="0px" y="0px"
	 viewBox="0 0 100 100" style="enable-background:new 0 0 100 100;" xml:space="preserve">
<style type="text/css">
	.st0{fill:#FFFFFF;}
</style>
<g id="Group_402" transform="translate(-603.898 -463.351)">
	<path id="Path_876" class="st0" d="M686.03,485.24h-66.02c-0.59,0-1.07,0.48-1.07,1.07s0.48,1.07,1.07,1.07h14.09l-9.04,40.48
		c0.09,0,0.18-0.01,0.28-0.01c1.1,0,2.19,0.22,3.21,0.63l13.62-41.1h3.99l2.45,40.65c1.15-0.24,2.35-0.24,3.5,0l2.45-40.65h6.51
		l2.45,40.65c1.15-0.24,2.35-0.24,3.5,0l2.45-40.65h6.51l2.45,40.65c1.15-0.24,2.35-0.24,3.5,0l2.45-40.65h1.66
		c0.59,0,1.07-0.48,1.07-1.07S686.63,485.23,686.03,485.24L686.03,485.24z M628.76,521.05l7.51-33.65l3.65-0.03L628.76,521.05z
		 M650.36,521.63l-2.06-34.26h4.13L650.36,521.63z M665.27,521.63l-2.06-34.26h4.13L665.27,521.63z M680.18,521.63l-2.06-34.26h4.13
		L680.18,521.63z"/>
	<path id="Path_877" class="st0" d="M680.18,529.96c-3.53,0-6.39,2.86-6.39,6.39s2.86,6.39,6.39,6.39c3.53,0,6.39-2.86,6.39-6.39v0
		C686.57,532.82,683.71,529.96,680.18,529.96z M680.18,540.61c-2.35,0-4.26-1.91-4.26-4.26s1.91-4.26,4.26-4.26
		c2.35,0,4.26,1.91,4.26,4.26C684.44,538.7,682.53,540.61,680.18,540.61C680.18,540.61,680.18,540.61,680.18,540.61z"/>
	<path id="Path_878" class="st0" d="M625.34,529.96c-3.53,0-6.39,2.86-6.39,6.39s2.86,6.39,6.39,6.39c3.53,0,6.39-2.86,6.39-6.39v0
		C631.73,532.82,628.87,529.96,625.34,529.96z M625.34,540.61c-2.35,0-4.26-1.91-4.26-4.26s1.91-4.26,4.26-4.26
		c2.35,0,4.26,1.91,4.26,4.26C629.6,538.7,627.69,540.61,625.34,540.61C625.34,540.61,625.34,540.61,625.34,540.61z"/>
	<path id="Path_879" class="st0" d="M650.36,529.96c-3.53,0-6.39,2.86-6.39,6.39s2.86,6.39,6.39,6.39c3.53,0,6.39-2.86,6.39-6.39v0
		C656.75,532.82,653.89,529.96,650.36,529.96z M650.36,540.61c-2.35,0-4.26-1.91-4.26-4.26s1.91-4.26,4.26-4.26
		c2.35,0,4.26,1.91,4.26,4.26C654.62,538.7,652.71,540.61,650.36,540.61z"/>
	<path id="Path_880" class="st0" d="M665.27,529.96c-3.53,0-6.39,2.86-6.39,6.39s2.86,6.39,6.39,6.39c3.53,0,6.39-2.86,6.39-6.39v0
		C671.66,532.82,668.8,529.96,665.27,529.96z M665.27,540.61c-2.35,0-4.26-1.91-4.26-4.26s1.91-4.26,4.26-4.26
		c2.35,0,4.26,1.91,4.26,4.26C669.53,538.7,667.62,540.61,665.27,540.61C665.27,540.61,665.27,540.61,665.27,540.61z"/>
</g>
</svg>
